<?xml version="1.0" encoding="utf-8" standalone="no"?>
<!DOCTYPE svg PUBLIC "-//W3C//DTD SVG 1.1//EN"
  "http://www.w3.org/Graphics/SVG/1.1/DTD/svg11.dtd">
<!-- Created with matplotlib (http://matplotlib.org/) -->
<svg height="216pt" version="1.1" viewBox="0 0 360 216" width="360pt" xmlns="http://www.w3.org/2000/svg" xmlns:xlink="http://www.w3.org/1999/xlink">
 <defs>
  <style type="text/css">
*{stroke-linecap:butt;stroke-linejoin:round;}
  </style>
 </defs>
 <g id="figure_1">
  <g id="patch_1">
   <path d="M 0 216 
L 360 216 
L 360 0 
L 0 0 
z
" style="fill:#ffffff;"/>
  </g>
  <g id="axes_1">
   <g id="patch_2">
    <path d="M 45 192.24 
L 324 192.24 
L 324 25.92 
L 45 25.92 
z
" style="fill:#ffffff;"/>
   </g>
   <g id="PathCollection_1">
    <defs>
     <path d="M -3.535534 3.535534 
L 3.535534 -3.535534 
M -3.535534 -3.535534 
L 3.535534 3.535534 
" id="md88f109636" style="stroke:#008000;stroke-width:1.5;"/>
    </defs>
    <g clip-path="url(#p97d282a41d)">
     <use style="fill:#008000;stroke:#008000;stroke-width:1.5;" x="104.607614" xlink:href="#md88f109636" y="46.271594"/>
     <use style="fill:#008000;stroke:#008000;stroke-width:1.5;" x="134.750424" xlink:href="#md88f109636" y="71.144505"/>
     <use style="fill:#008000;stroke:#008000;stroke-width:1.5;" x="295.963952" xlink:href="#md88f109636" y="162.786455"/>
     <use style="fill:#008000;stroke:#008000;stroke-width:1.5;" x="269.015803" xlink:href="#md88f109636" y="138.972208"/>
     <use style="fill:#008000;stroke:#008000;stroke-width:1.5;" x="91.172241" xlink:href="#md88f109636" y="53.044845"/>
     <use style="fill:#008000;stroke:#008000;stroke-width:1.5;" x="125.545954" xlink:href="#md88f109636" y="69.685"/>
     <use style="fill:#008000;stroke:#008000;stroke-width:1.5;" x="289.024872" xlink:href="#md88f109636" y="156.342573"/>
     <use style="fill:#008000;stroke:#008000;stroke-width:1.5;" x="86.770793" xlink:href="#md88f109636" y="53.466672"/>
     <use style="fill:#008000;stroke:#008000;stroke-width:1.5;" x="123.062771" xlink:href="#md88f109636" y="76.55038"/>
     <use style="fill:#008000;stroke:#008000;stroke-width:1.5;" x="294.735356" xlink:href="#md88f109636" y="166.268769"/>
     <use style="fill:#008000;stroke:#008000;stroke-width:1.5;" x="70.839709" xlink:href="#md88f109636" y="41.082895"/>
     <use style="fill:#008000;stroke:#008000;stroke-width:1.5;" x="110.890066" xlink:href="#md88f109636" y="58.936742"/>
     <use style="fill:#008000;stroke:#008000;stroke-width:1.5;" x="87.908432" xlink:href="#md88f109636" y="58.003104"/>
     <use style="fill:#008000;stroke:#008000;stroke-width:1.5;" x="208.064485" xlink:href="#md88f109636" y="148.53878"/>
     <use style="fill:#008000;stroke:#008000;stroke-width:1.5;" x="137.624738" xlink:href="#md88f109636" y="42.993419"/>
     <use style="fill:#008000;stroke:#008000;stroke-width:1.5;" x="132.838082" xlink:href="#md88f109636" y="77.852967"/>
     <use style="fill:#008000;stroke:#008000;stroke-width:1.5;" x="197.398545" xlink:href="#md88f109636" y="169.476993"/>
     <use style="fill:#008000;stroke:#008000;stroke-width:1.5;" x="82.816352" xlink:href="#md88f109636" y="38.200639"/>
     <use style="fill:#008000;stroke:#008000;stroke-width:1.5;" x="123.651878" xlink:href="#md88f109636" y="73.726174"/>
     <use style="fill:#008000;stroke:#008000;stroke-width:1.5;" x="92.05409" xlink:href="#md88f109636" y="53.016634"/>
     <use style="fill:#008000;stroke:#008000;stroke-width:1.5;" x="208.495057" xlink:href="#md88f109636" y="162.505798"/>
     <use style="fill:#008000;stroke:#008000;stroke-width:1.5;" x="233.532474" xlink:href="#md88f109636" y="162.439775"/>
     <use style="fill:#008000;stroke:#008000;stroke-width:1.5;" x="241.971414" xlink:href="#md88f109636" y="156.655277"/>
     <use style="fill:#008000;stroke:#008000;stroke-width:1.5;" x="285.172565" xlink:href="#md88f109636" y="147.695554"/>
     <use style="fill:#008000;stroke:#008000;stroke-width:1.5;" x="298.813906" xlink:href="#md88f109636" y="142.689746"/>
     <use style="fill:#008000;stroke:#008000;stroke-width:1.5;" x="303.962427" xlink:href="#md88f109636" y="147.500915"/>
     <use style="fill:#008000;stroke:#008000;stroke-width:1.5;" x="206.433983" xlink:href="#md88f109636" y="176.257654"/>
     <use style="fill:#008000;stroke:#008000;stroke-width:1.5;" x="208.325655" xlink:href="#md88f109636" y="148.466557"/>
     <use style="fill:#008000;stroke:#008000;stroke-width:1.5;" x="200.457469" xlink:href="#md88f109636" y="164.991017"/>
     <use style="fill:#008000;stroke:#008000;stroke-width:1.5;" x="120.698169" xlink:href="#md88f109636" y="72.734169"/>
     <use style="fill:#008000;stroke:#008000;stroke-width:1.5;" x="66.406332" xlink:href="#md88f109636" y="36.277989"/>
     <use style="fill:#008000;stroke:#008000;stroke-width:1.5;" x="116.082503" xlink:href="#md88f109636" y="38.858838"/>
     <use style="fill:#008000;stroke:#008000;stroke-width:1.5;" x="275.681454" xlink:href="#md88f109636" y="120.807258"/>
     <use style="fill:#008000;stroke:#008000;stroke-width:1.5;" x="272.835652" xlink:href="#md88f109636" y="150.132066"/>
     <use style="fill:#008000;stroke:#008000;stroke-width:1.5;" x="198.330516" xlink:href="#md88f109636" y="166.445033"/>
     <use style="fill:#008000;stroke:#008000;stroke-width:1.5;" x="122.84339" xlink:href="#md88f109636" y="81.265475"/>
     <use style="fill:#008000;stroke:#008000;stroke-width:1.5;" x="76.496949" xlink:href="#md88f109636" y="45.760227"/>
     <use style="fill:#008000;stroke:#008000;stroke-width:1.5;" x="103.496326" xlink:href="#md88f109636" y="79.252244"/>
     <use style="fill:#008000;stroke:#008000;stroke-width:1.5;" x="100.395793" xlink:href="#md88f109636" y="46.598653"/>
     <use style="fill:#008000;stroke:#008000;stroke-width:1.5;" x="213.084784" xlink:href="#md88f109636" y="152.948181"/>
     <use style="fill:#008000;stroke:#008000;stroke-width:1.5;" x="310.120113" xlink:href="#md88f109636" y="156.232738"/>
     <use style="fill:#008000;stroke:#008000;stroke-width:1.5;" x="95.376348" xlink:href="#md88f109636" y="54.485435"/>
     <use style="fill:#008000;stroke:#008000;stroke-width:1.5;" x="115.170486" xlink:href="#md88f109636" y="85.180195"/>
     <use style="fill:#008000;stroke:#008000;stroke-width:1.5;" x="258.204648" xlink:href="#md88f109636" y="156.018102"/>
     <use style="fill:#008000;stroke:#008000;stroke-width:1.5;" x="206.735549" xlink:href="#md88f109636" y="184.415499"/>
     <use style="fill:#008000;stroke:#008000;stroke-width:1.5;" x="64.789296" xlink:href="#md88f109636" y="42.52155"/>
     <use style="fill:#008000;stroke:#008000;stroke-width:1.5;" x="104.014495" xlink:href="#md88f109636" y="79.571861"/>
     <use style="fill:#008000;stroke:#008000;stroke-width:1.5;" x="309.588013" xlink:href="#md88f109636" y="156.340248"/>
     <use style="fill:#008000;stroke:#008000;stroke-width:1.5;" x="103.318596" xlink:href="#md88f109636" y="99.055546"/>
     <use style="fill:#008000;stroke:#008000;stroke-width:1.5;" x="75.893991" xlink:href="#md88f109636" y="75.408149"/>
     <use style="fill:#008000;stroke:#008000;stroke-width:1.5;" x="197.390875" xlink:href="#md88f109636" y="179.789658"/>
     <use style="fill:#008000;stroke:#008000;stroke-width:1.5;" x="119.98339" xlink:href="#md88f109636" y="84.795277"/>
     <use style="fill:#008000;stroke:#008000;stroke-width:1.5;" x="105.064252" xlink:href="#md88f109636" y="90.95589"/>
     <use style="fill:#008000;stroke:#008000;stroke-width:1.5;" x="76.68864" xlink:href="#md88f109636" y="79.931907"/>
     <use style="fill:#008000;stroke:#008000;stroke-width:1.5;" x="120.614586" xlink:href="#md88f109636" y="33.706068"/>
     <use style="fill:#008000;stroke:#008000;stroke-width:1.5;" x="64.189724" xlink:href="#md88f109636" y="43.281804"/>
     <use style="fill:#008000;stroke:#008000;stroke-width:1.5;" x="284.357563" xlink:href="#md88f109636" y="132.519142"/>
     <use style="fill:#008000;stroke:#008000;stroke-width:1.5;" x="189.561728" xlink:href="#md88f109636" y="164.477869"/>
     <use style="fill:#008000;stroke:#008000;stroke-width:1.5;" x="298.549744" xlink:href="#md88f109636" y="143.462488"/>
     <use style="fill:#008000;stroke:#008000;stroke-width:1.5;" x="195.087729" xlink:href="#md88f109636" y="155.350782"/>
     <use style="fill:#008000;stroke:#008000;stroke-width:1.5;" x="208.204235" xlink:href="#md88f109636" y="176.09238"/>
     <use style="fill:#008000;stroke:#008000;stroke-width:1.5;" x="108.349347" xlink:href="#md88f109636" y="89.44303"/>
     <use style="fill:#008000;stroke:#008000;stroke-width:1.5;" x="238.306622" xlink:href="#md88f109636" y="157.940259"/>
     <use style="fill:#008000;stroke:#008000;stroke-width:1.5;" x="106.137109" xlink:href="#md88f109636" y="76.46539"/>
     <use style="fill:#008000;stroke:#008000;stroke-width:1.5;" x="214.878306" xlink:href="#md88f109636" y="184.51862"/>
     <use style="fill:#008000;stroke:#008000;stroke-width:1.5;" x="299.743208" xlink:href="#md88f109636" y="159.761846"/>
     <use style="fill:#008000;stroke:#008000;stroke-width:1.5;" x="120.561981" xlink:href="#md88f109636" y="72.782683"/>
     <use style="fill:#008000;stroke:#008000;stroke-width:1.5;" x="101.154087" xlink:href="#md88f109636" y="93.067952"/>
     <use style="fill:#008000;stroke:#008000;stroke-width:1.5;" x="275.680529" xlink:href="#md88f109636" y="120.801221"/>
     <use style="fill:#008000;stroke:#008000;stroke-width:1.5;" x="57.798318" xlink:href="#md88f109636" y="38.78317"/>
     <use style="fill:#008000;stroke:#008000;stroke-width:1.5;" x="61.962691" xlink:href="#md88f109636" y="44.812205"/>
     <use style="fill:#008000;stroke:#008000;stroke-width:1.5;" x="266.423832" xlink:href="#md88f109636" y="138.583927"/>
     <use style="fill:#008000;stroke:#008000;stroke-width:1.5;" x="208.188483" xlink:href="#md88f109636" y="148.458636"/>
     <use style="fill:#008000;stroke:#008000;stroke-width:1.5;" x="85.474512" xlink:href="#md88f109636" y="39.654447"/>
     <use style="fill:#008000;stroke:#008000;stroke-width:1.5;" x="299.958127" xlink:href="#md88f109636" y="142.750683"/>
     <use style="fill:#008000;stroke:#008000;stroke-width:1.5;" x="60.187122" xlink:href="#md88f109636" y="36.820378"/>
     <use style="fill:#008000;stroke:#008000;stroke-width:1.5;" x="105.034583" xlink:href="#md88f109636" y="100.000873"/>
     <use style="fill:#008000;stroke:#008000;stroke-width:1.5;" x="137.892292" xlink:href="#md88f109636" y="41.973972"/>
     <use style="fill:#008000;stroke:#008000;stroke-width:1.5;" x="115.858969" xlink:href="#md88f109636" y="69.650268"/>
     <use style="fill:#008000;stroke:#008000;stroke-width:1.5;" x="130.751634" xlink:href="#md88f109636" y="63.896329"/>
     <use style="fill:#008000;stroke:#008000;stroke-width:1.5;" x="67.292382" xlink:href="#md88f109636" y="36.43379"/>
     <use style="fill:#008000;stroke:#008000;stroke-width:1.5;" x="120.73632" xlink:href="#md88f109636" y="33.64138"/>
    </g>
   </g>
   <g id="PathCollection_2">
    <defs>
     <path d="M -3.535534 0 
L 3.535534 0 
M 0 3.535534 
L 0 -3.535534 
" id="mb9e81df96a" style="stroke:#ff0000;stroke-width:1.5;"/>
    </defs>
    <g clip-path="url(#p97d282a41d)">
     <use style="fill:#ff0000;stroke:#ff0000;stroke-width:1.5;" x="177.061452" xlink:href="#mb9e81df96a" y="151.386962"/>
     <use style="fill:#ff0000;stroke:#ff0000;stroke-width:1.5;" x="116.209217" xlink:href="#mb9e81df96a" y="120.166076"/>
     <use style="fill:#ff0000;stroke:#ff0000;stroke-width:1.5;" x="205.369401" xlink:href="#mb9e81df96a" y="163.29023"/>
     <use style="fill:#ff0000;stroke:#ff0000;stroke-width:1.5;" x="194.547535" xlink:href="#mb9e81df96a" y="99.588601"/>
     <use style="fill:#ff0000;stroke:#ff0000;stroke-width:1.5;" x="127.113137" xlink:href="#mb9e81df96a" y="119.101131"/>
     <use style="fill:#ff0000;stroke:#ff0000;stroke-width:1.5;" x="280.726093" xlink:href="#mb9e81df96a" y="177.904248"/>
     <use style="fill:#ff0000;stroke:#ff0000;stroke-width:1.5;" x="285.905111" xlink:href="#mb9e81df96a" y="140.330396"/>
     <use style="fill:#ff0000;stroke:#ff0000;stroke-width:1.5;" x="289.559145" xlink:href="#mb9e81df96a" y="139.882415"/>
     <use style="fill:#ff0000;stroke:#ff0000;stroke-width:1.5;" x="281.626389" xlink:href="#mb9e81df96a" y="138.169987"/>
     <use style="fill:#ff0000;stroke:#ff0000;stroke-width:1.5;" x="229.593699" xlink:href="#mb9e81df96a" y="142.352108"/>
     <use style="fill:#ff0000;stroke:#ff0000;stroke-width:1.5;" x="233.037509" xlink:href="#mb9e81df96a" y="161.560725"/>
     <use style="fill:#ff0000;stroke:#ff0000;stroke-width:1.5;" x="264.698414" xlink:href="#mb9e81df96a" y="157.992021"/>
     <use style="fill:#ff0000;stroke:#ff0000;stroke-width:1.5;" x="155.975737" xlink:href="#mb9e81df96a" y="123.573933"/>
     <use style="fill:#ff0000;stroke:#ff0000;stroke-width:1.5;" x="106.297176" xlink:href="#mb9e81df96a" y="71.69705"/>
     <use style="fill:#ff0000;stroke:#ff0000;stroke-width:1.5;" x="171.816961" xlink:href="#mb9e81df96a" y="99.769946"/>
     <use style="fill:#ff0000;stroke:#ff0000;stroke-width:1.5;" x="146.038572" xlink:href="#mb9e81df96a" y="109.226761"/>
     <use style="fill:#ff0000;stroke:#ff0000;stroke-width:1.5;" x="285.515409" xlink:href="#mb9e81df96a" y="163.710363"/>
     <use style="fill:#ff0000;stroke:#ff0000;stroke-width:1.5;" x="226.469865" xlink:href="#mb9e81df96a" y="160.97428"/>
     <use style="fill:#ff0000;stroke:#ff0000;stroke-width:1.5;" x="164.169172" xlink:href="#mb9e81df96a" y="103.403155"/>
     <use style="fill:#ff0000;stroke:#ff0000;stroke-width:1.5;" x="126.953545" xlink:href="#mb9e81df96a" y="98.504107"/>
     <use style="fill:#ff0000;stroke:#ff0000;stroke-width:1.5;" x="175.61561" xlink:href="#mb9e81df96a" y="135.751918"/>
     <use style="fill:#ff0000;stroke:#ff0000;stroke-width:1.5;" x="248.260146" xlink:href="#mb9e81df96a" y="145.77794"/>
     <use style="fill:#ff0000;stroke:#ff0000;stroke-width:1.5;" x="237.626066" xlink:href="#mb9e81df96a" y="148.882262"/>
     <use style="fill:#ff0000;stroke:#ff0000;stroke-width:1.5;" x="191.737139" xlink:href="#mb9e81df96a" y="145.793252"/>
     <use style="fill:#ff0000;stroke:#ff0000;stroke-width:1.5;" x="97.839993" xlink:href="#mb9e81df96a" y="68.967357"/>
     <use style="fill:#ff0000;stroke:#ff0000;stroke-width:1.5;" x="102.011295" xlink:href="#mb9e81df96a" y="59.547554"/>
     <use style="fill:#ff0000;stroke:#ff0000;stroke-width:1.5;" x="225.964745" xlink:href="#mb9e81df96a" y="164.06977"/>
     <use style="fill:#ff0000;stroke:#ff0000;stroke-width:1.5;" x="211.563637" xlink:href="#mb9e81df96a" y="159.407829"/>
     <use style="fill:#ff0000;stroke:#ff0000;stroke-width:1.5;" x="222.510956" xlink:href="#mb9e81df96a" y="152.874465"/>
     <use style="fill:#ff0000;stroke:#ff0000;stroke-width:1.5;" x="220.282838" xlink:href="#mb9e81df96a" y="148.516902"/>
     <use style="fill:#ff0000;stroke:#ff0000;stroke-width:1.5;" x="188.388162" xlink:href="#mb9e81df96a" y="90.681885"/>
     <use style="fill:#ff0000;stroke:#ff0000;stroke-width:1.5;" x="148.559826" xlink:href="#mb9e81df96a" y="131.453873"/>
     <use style="fill:#ff0000;stroke:#ff0000;stroke-width:1.5;" x="274.891305" xlink:href="#mb9e81df96a" y="178.424394"/>
     <use style="fill:#ff0000;stroke:#ff0000;stroke-width:1.5;" x="218.125303" xlink:href="#mb9e81df96a" y="174.756695"/>
     <use style="fill:#ff0000;stroke:#ff0000;stroke-width:1.5;" x="223.963076" xlink:href="#mb9e81df96a" y="170.03456"/>
     <use style="fill:#ff0000;stroke:#ff0000;stroke-width:1.5;" x="255.800598" xlink:href="#mb9e81df96a" y="160.126706"/>
     <use style="fill:#ff0000;stroke:#ff0000;stroke-width:1.5;" x="206.736444" xlink:href="#mb9e81df96a" y="156.681107"/>
     <use style="fill:#ff0000;stroke:#ff0000;stroke-width:1.5;" x="203.830555" xlink:href="#mb9e81df96a" y="153.649729"/>
     <use style="fill:#ff0000;stroke:#ff0000;stroke-width:1.5;" x="150.999225" xlink:href="#mb9e81df96a" y="129.156569"/>
     <use style="fill:#ff0000;stroke:#ff0000;stroke-width:1.5;" x="275.773415" xlink:href="#mb9e81df96a" y="122.224353"/>
     <use style="fill:#ff0000;stroke:#ff0000;stroke-width:1.5;" x="277.797" xlink:href="#mb9e81df96a" y="135.823601"/>
     <use style="fill:#ff0000;stroke:#ff0000;stroke-width:1.5;" x="164.342104" xlink:href="#mb9e81df96a" y="124.169103"/>
     <use style="fill:#ff0000;stroke:#ff0000;stroke-width:1.5;" x="191.806365" xlink:href="#mb9e81df96a" y="139.226691"/>
     <use style="fill:#ff0000;stroke:#ff0000;stroke-width:1.5;" x="131.522007" xlink:href="#mb9e81df96a" y="84.17198"/>
     <use style="fill:#ff0000;stroke:#ff0000;stroke-width:1.5;" x="125.758619" xlink:href="#mb9e81df96a" y="118.707957"/>
     <use style="fill:#ff0000;stroke:#ff0000;stroke-width:1.5;" x="149.660891" xlink:href="#mb9e81df96a" y="119.990127"/>
     <use style="fill:#ff0000;stroke:#ff0000;stroke-width:1.5;" x="175.219838" xlink:href="#mb9e81df96a" y="98.390655"/>
     <use style="fill:#ff0000;stroke:#ff0000;stroke-width:1.5;" x="127.365762" xlink:href="#mb9e81df96a" y="112.044308"/>
     <use style="fill:#ff0000;stroke:#ff0000;stroke-width:1.5;" x="82.071215" xlink:href="#mb9e81df96a" y="79.099529"/>
     <use style="fill:#ff0000;stroke:#ff0000;stroke-width:1.5;" x="131.682823" xlink:href="#mb9e81df96a" y="127.777083"/>
     <use style="fill:#ff0000;stroke:#ff0000;stroke-width:1.5;" x="187.134106" xlink:href="#mb9e81df96a" y="138.992418"/>
     <use style="fill:#ff0000;stroke:#ff0000;stroke-width:1.5;" x="172.088917" xlink:href="#mb9e81df96a" y="127.760232"/>
     <use style="fill:#ff0000;stroke:#ff0000;stroke-width:1.5;" x="308.783452" xlink:href="#mb9e81df96a" y="146.73382"/>
     <use style="fill:#ff0000;stroke:#ff0000;stroke-width:1.5;" x="301.130464" xlink:href="#mb9e81df96a" y="151.817795"/>
     <use style="fill:#ff0000;stroke:#ff0000;stroke-width:1.5;" x="167.721409" xlink:href="#mb9e81df96a" y="107.871528"/>
     <use style="fill:#ff0000;stroke:#ff0000;stroke-width:1.5;" x="165.969637" xlink:href="#mb9e81df96a" y="111.41081"/>
     <use style="fill:#ff0000;stroke:#ff0000;stroke-width:1.5;" x="148.754354" xlink:href="#mb9e81df96a" y="105.650083"/>
     <use style="fill:#ff0000;stroke:#ff0000;stroke-width:1.5;" x="91.890771" xlink:href="#mb9e81df96a" y="60.205522"/>
     <use style="fill:#ff0000;stroke:#ff0000;stroke-width:1.5;" x="86.145661" xlink:href="#mb9e81df96a" y="59.046614"/>
     <use style="fill:#ff0000;stroke:#ff0000;stroke-width:1.5;" x="278.29367" xlink:href="#mb9e81df96a" y="177.870361"/>
    </g>
   </g>
   <g id="matplotlib.axis_1">
    <g id="xtick_1">
     <g id="line2d_1">
      <defs>
       <path d="M 0 0 
L 0 3.5 
" id="m511735a2bc" style="stroke:#000000;stroke-width:0.8;"/>
      </defs>
      <g>
       <use style="stroke:#000000;stroke-width:0.8;" x="74.422763" xlink:href="#m511735a2bc" y="192.24"/>
      </g>
     </g>
     <g id="text_1">
      <!-- −10.0 -->
      <defs>
       <path d="M 10.59375 35.5 
L 73.1875 35.5 
L 73.1875 27.203125 
L 10.59375 27.203125 
z
" id="DejaVuSans-2212"/>
       <path d="M 12.40625 8.296875 
L 28.515625 8.296875 
L 28.515625 63.921875 
L 10.984375 60.40625 
L 10.984375 69.390625 
L 28.421875 72.90625 
L 38.28125 72.90625 
L 38.28125 8.296875 
L 54.390625 8.296875 
L 54.390625 0 
L 12.40625 0 
z
" id="DejaVuSans-31"/>
       <path d="M 31.78125 66.40625 
Q 24.171875 66.40625 20.328125 58.90625 
Q 16.5 51.421875 16.5 36.375 
Q 16.5 21.390625 20.328125 13.890625 
Q 24.171875 6.390625 31.78125 6.390625 
Q 39.453125 6.390625 43.28125 13.890625 
Q 47.125 21.390625 47.125 36.375 
Q 47.125 51.421875 43.28125 58.90625 
Q 39.453125 66.40625 31.78125 66.40625 
z
M 31.78125 74.21875 
Q 44.046875 74.21875 50.515625 64.515625 
Q 56.984375 54.828125 56.984375 36.375 
Q 56.984375 17.96875 50.515625 8.265625 
Q 44.046875 -1.421875 31.78125 -1.421875 
Q 19.53125 -1.421875 13.0625 8.265625 
Q 6.59375 17.96875 6.59375 36.375 
Q 6.59375 54.828125 13.0625 64.515625 
Q 19.53125 74.21875 31.78125 74.21875 
z
" id="DejaVuSans-30"/>
       <path d="M 10.6875 12.40625 
L 21 12.40625 
L 21 0 
L 10.6875 0 
z
" id="DejaVuSans-2e"/>
      </defs>
      <g transform="translate(59.100106 206.838437)scale(0.1 -0.1)">
       <use xlink:href="#DejaVuSans-2212"/>
       <use x="83.789062" xlink:href="#DejaVuSans-31"/>
       <use x="147.412109" xlink:href="#DejaVuSans-30"/>
       <use x="211.035156" xlink:href="#DejaVuSans-2e"/>
       <use x="242.822266" xlink:href="#DejaVuSans-30"/>
      </g>
     </g>
    </g>
    <g id="xtick_2">
     <g id="line2d_2">
      <g>
       <use style="stroke:#000000;stroke-width:0.8;" x="106.344113" xlink:href="#m511735a2bc" y="192.24"/>
      </g>
     </g>
     <g id="text_2">
      <!-- −7.5 -->
      <defs>
       <path d="M 8.203125 72.90625 
L 55.078125 72.90625 
L 55.078125 68.703125 
L 28.609375 0 
L 18.3125 0 
L 43.21875 64.59375 
L 8.203125 64.59375 
z
" id="DejaVuSans-37"/>
       <path d="M 10.796875 72.90625 
L 49.515625 72.90625 
L 49.515625 64.59375 
L 19.828125 64.59375 
L 19.828125 46.734375 
Q 21.96875 47.46875 24.109375 47.828125 
Q 26.265625 48.1875 28.421875 48.1875 
Q 40.625 48.1875 47.75 41.5 
Q 54.890625 34.8125 54.890625 23.390625 
Q 54.890625 11.625 47.5625 5.09375 
Q 40.234375 -1.421875 26.90625 -1.421875 
Q 22.3125 -1.421875 17.546875 -0.640625 
Q 12.796875 0.140625 7.71875 1.703125 
L 7.71875 11.625 
Q 12.109375 9.234375 16.796875 8.0625 
Q 21.484375 6.890625 26.703125 6.890625 
Q 35.15625 6.890625 40.078125 11.328125 
Q 45.015625 15.765625 45.015625 23.390625 
Q 45.015625 31 40.078125 35.4375 
Q 35.15625 39.890625 26.703125 39.890625 
Q 22.75 39.890625 18.8125 39.015625 
Q 14.890625 38.140625 10.796875 36.28125 
z
" id="DejaVuSans-35"/>
      </defs>
      <g transform="translate(94.202707 206.838437)scale(0.1 -0.1)">
       <use xlink:href="#DejaVuSans-2212"/>
       <use x="83.789062" xlink:href="#DejaVuSans-37"/>
       <use x="147.412109" xlink:href="#DejaVuSans-2e"/>
       <use x="179.199219" xlink:href="#DejaVuSans-35"/>
      </g>
     </g>
    </g>
    <g id="xtick_3">
     <g id="line2d_3">
      <g>
       <use style="stroke:#000000;stroke-width:0.8;" x="138.265463" xlink:href="#m511735a2bc" y="192.24"/>
      </g>
     </g>
     <g id="text_3">
      <!-- −5.0 -->
      <g transform="translate(126.124057 206.838437)scale(0.1 -0.1)">
       <use xlink:href="#DejaVuSans-2212"/>
       <use x="83.789062" xlink:href="#DejaVuSans-35"/>
       <use x="147.412109" xlink:href="#DejaVuSans-2e"/>
       <use x="179.199219" xlink:href="#DejaVuSans-30"/>
      </g>
     </g>
    </g>
    <g id="xtick_4">
     <g id="line2d_4">
      <g>
       <use style="stroke:#000000;stroke-width:0.8;" x="170.186813" xlink:href="#m511735a2bc" y="192.24"/>
      </g>
     </g>
     <g id="text_4">
      <!-- −2.5 -->
      <defs>
       <path d="M 19.1875 8.296875 
L 53.609375 8.296875 
L 53.609375 0 
L 7.328125 0 
L 7.328125 8.296875 
Q 12.9375 14.109375 22.625 23.890625 
Q 32.328125 33.6875 34.8125 36.53125 
Q 39.546875 41.84375 41.421875 45.53125 
Q 43.3125 49.21875 43.3125 52.78125 
Q 43.3125 58.59375 39.234375 62.25 
Q 35.15625 65.921875 28.609375 65.921875 
Q 23.96875 65.921875 18.8125 64.3125 
Q 13.671875 62.703125 7.8125 59.421875 
L 7.8125 69.390625 
Q 13.765625 71.78125 18.9375 73 
Q 24.125 74.21875 28.421875 74.21875 
Q 39.75 74.21875 46.484375 68.546875 
Q 53.21875 62.890625 53.21875 53.421875 
Q 53.21875 48.921875 51.53125 44.890625 
Q 49.859375 40.875 45.40625 35.40625 
Q 44.1875 33.984375 37.640625 27.21875 
Q 31.109375 20.453125 19.1875 8.296875 
z
" id="DejaVuSans-32"/>
      </defs>
      <g transform="translate(158.045407 206.838437)scale(0.1 -0.1)">
       <use xlink:href="#DejaVuSans-2212"/>
       <use x="83.789062" xlink:href="#DejaVuSans-32"/>
       <use x="147.412109" xlink:href="#DejaVuSans-2e"/>
       <use x="179.199219" xlink:href="#DejaVuSans-35"/>
      </g>
     </g>
    </g>
    <g id="xtick_5">
     <g id="line2d_5">
      <g>
       <use style="stroke:#000000;stroke-width:0.8;" x="202.108163" xlink:href="#m511735a2bc" y="192.24"/>
      </g>
     </g>
     <g id="text_5">
      <!-- 0.0 -->
      <g transform="translate(194.156601 206.838437)scale(0.1 -0.1)">
       <use xlink:href="#DejaVuSans-30"/>
       <use x="63.623047" xlink:href="#DejaVuSans-2e"/>
       <use x="95.410156" xlink:href="#DejaVuSans-30"/>
      </g>
     </g>
    </g>
    <g id="xtick_6">
     <g id="line2d_6">
      <g>
       <use style="stroke:#000000;stroke-width:0.8;" x="234.029513" xlink:href="#m511735a2bc" y="192.24"/>
      </g>
     </g>
     <g id="text_6">
      <!-- 2.5 -->
      <g transform="translate(226.077951 206.838437)scale(0.1 -0.1)">
       <use xlink:href="#DejaVuSans-32"/>
       <use x="63.623047" xlink:href="#DejaVuSans-2e"/>
       <use x="95.410156" xlink:href="#DejaVuSans-35"/>
      </g>
     </g>
    </g>
    <g id="xtick_7">
     <g id="line2d_7">
      <g>
       <use style="stroke:#000000;stroke-width:0.8;" x="265.950864" xlink:href="#m511735a2bc" y="192.24"/>
      </g>
     </g>
     <g id="text_7">
      <!-- 5.0 -->
      <g transform="translate(257.999301 206.838437)scale(0.1 -0.1)">
       <use xlink:href="#DejaVuSans-35"/>
       <use x="63.623047" xlink:href="#DejaVuSans-2e"/>
       <use x="95.410156" xlink:href="#DejaVuSans-30"/>
      </g>
     </g>
    </g>
    <g id="xtick_8">
     <g id="line2d_8">
      <g>
       <use style="stroke:#000000;stroke-width:0.8;" x="297.872214" xlink:href="#m511735a2bc" y="192.24"/>
      </g>
     </g>
     <g id="text_8">
      <!-- 7.5 -->
      <g transform="translate(289.920651 206.838437)scale(0.1 -0.1)">
       <use xlink:href="#DejaVuSans-37"/>
       <use x="63.623047" xlink:href="#DejaVuSans-2e"/>
       <use x="95.410156" xlink:href="#DejaVuSans-35"/>
      </g>
     </g>
    </g>
   </g>
   <g id="matplotlib.axis_2">
    <g id="ytick_1">
     <g id="line2d_9">
      <defs>
       <path d="M 0 0 
L -3.5 0 
" id="m0b91ca85ae" style="stroke:#000000;stroke-width:0.8;"/>
      </defs>
      <g>
       <use style="stroke:#000000;stroke-width:0.8;" x="45" xlink:href="#m0b91ca85ae" y="175.967942"/>
      </g>
     </g>
     <g id="text_9">
      <!-- −4 -->
      <defs>
       <path d="M 37.796875 64.3125 
L 12.890625 25.390625 
L 37.796875 25.390625 
z
M 35.203125 72.90625 
L 47.609375 72.90625 
L 47.609375 25.390625 
L 58.015625 25.390625 
L 58.015625 17.1875 
L 47.609375 17.1875 
L 47.609375 0 
L 37.796875 0 
L 37.796875 17.1875 
L 4.890625 17.1875 
L 4.890625 26.703125 
z
" id="DejaVuSans-34"/>
      </defs>
      <g transform="translate(23.257812 179.767161)scale(0.1 -0.1)">
       <use xlink:href="#DejaVuSans-2212"/>
       <use x="83.789062" xlink:href="#DejaVuSans-34"/>
      </g>
     </g>
    </g>
    <g id="ytick_2">
     <g id="line2d_10">
      <g>
       <use style="stroke:#000000;stroke-width:0.8;" x="45" xlink:href="#m0b91ca85ae" y="154.879823"/>
      </g>
     </g>
     <g id="text_10">
      <!-- −2 -->
      <g transform="translate(23.257812 158.679042)scale(0.1 -0.1)">
       <use xlink:href="#DejaVuSans-2212"/>
       <use x="83.789062" xlink:href="#DejaVuSans-32"/>
      </g>
     </g>
    </g>
    <g id="ytick_3">
     <g id="line2d_11">
      <g>
       <use style="stroke:#000000;stroke-width:0.8;" x="45" xlink:href="#m0b91ca85ae" y="133.791704"/>
      </g>
     </g>
     <g id="text_11">
      <!-- 0 -->
      <g transform="translate(31.6375 137.590923)scale(0.1 -0.1)">
       <use xlink:href="#DejaVuSans-30"/>
      </g>
     </g>
    </g>
    <g id="ytick_4">
     <g id="line2d_12">
      <g>
       <use style="stroke:#000000;stroke-width:0.8;" x="45" xlink:href="#m0b91ca85ae" y="112.703585"/>
      </g>
     </g>
     <g id="text_12">
      <!-- 2 -->
      <g transform="translate(31.6375 116.502804)scale(0.1 -0.1)">
       <use xlink:href="#DejaVuSans-32"/>
      </g>
     </g>
    </g>
    <g id="ytick_5">
     <g id="line2d_13">
      <g>
       <use style="stroke:#000000;stroke-width:0.8;" x="45" xlink:href="#m0b91ca85ae" y="91.615466"/>
      </g>
     </g>
     <g id="text_13">
      <!-- 4 -->
      <g transform="translate(31.6375 95.414685)scale(0.1 -0.1)">
       <use xlink:href="#DejaVuSans-34"/>
      </g>
     </g>
    </g>
    <g id="ytick_6">
     <g id="line2d_14">
      <g>
       <use style="stroke:#000000;stroke-width:0.8;" x="45" xlink:href="#m0b91ca85ae" y="70.527348"/>
      </g>
     </g>
     <g id="text_14">
      <!-- 6 -->
      <defs>
       <path d="M 33.015625 40.375 
Q 26.375 40.375 22.484375 35.828125 
Q 18.609375 31.296875 18.609375 23.390625 
Q 18.609375 15.53125 22.484375 10.953125 
Q 26.375 6.390625 33.015625 6.390625 
Q 39.65625 6.390625 43.53125 10.953125 
Q 47.40625 15.53125 47.40625 23.390625 
Q 47.40625 31.296875 43.53125 35.828125 
Q 39.65625 40.375 33.015625 40.375 
z
M 52.59375 71.296875 
L 52.59375 62.3125 
Q 48.875 64.0625 45.09375 64.984375 
Q 41.3125 65.921875 37.59375 65.921875 
Q 27.828125 65.921875 22.671875 59.328125 
Q 17.53125 52.734375 16.796875 39.40625 
Q 19.671875 43.65625 24.015625 45.921875 
Q 28.375 48.1875 33.59375 48.1875 
Q 44.578125 48.1875 50.953125 41.515625 
Q 57.328125 34.859375 57.328125 23.390625 
Q 57.328125 12.15625 50.6875 5.359375 
Q 44.046875 -1.421875 33.015625 -1.421875 
Q 20.359375 -1.421875 13.671875 8.265625 
Q 6.984375 17.96875 6.984375 36.375 
Q 6.984375 53.65625 15.1875 63.9375 
Q 23.390625 74.21875 37.203125 74.21875 
Q 40.921875 74.21875 44.703125 73.484375 
Q 48.484375 72.75 52.59375 71.296875 
z
" id="DejaVuSans-36"/>
      </defs>
      <g transform="translate(31.6375 74.326566)scale(0.1 -0.1)">
       <use xlink:href="#DejaVuSans-36"/>
      </g>
     </g>
    </g>
    <g id="ytick_7">
     <g id="line2d_15">
      <g>
       <use style="stroke:#000000;stroke-width:0.8;" x="45" xlink:href="#m0b91ca85ae" y="49.439229"/>
      </g>
     </g>
     <g id="text_15">
      <!-- 8 -->
      <defs>
       <path d="M 31.78125 34.625 
Q 24.75 34.625 20.71875 30.859375 
Q 16.703125 27.09375 16.703125 20.515625 
Q 16.703125 13.921875 20.71875 10.15625 
Q 24.75 6.390625 31.78125 6.390625 
Q 38.8125 6.390625 42.859375 10.171875 
Q 46.921875 13.96875 46.921875 20.515625 
Q 46.921875 27.09375 42.890625 30.859375 
Q 38.875 34.625 31.78125 34.625 
z
M 21.921875 38.8125 
Q 15.578125 40.375 12.03125 44.71875 
Q 8.5 49.078125 8.5 55.328125 
Q 8.5 64.0625 14.71875 69.140625 
Q 20.953125 74.21875 31.78125 74.21875 
Q 42.671875 74.21875 48.875 69.140625 
Q 55.078125 64.0625 55.078125 55.328125 
Q 55.078125 49.078125 51.53125 44.71875 
Q 48 40.375 41.703125 38.8125 
Q 48.828125 37.15625 52.796875 32.3125 
Q 56.78125 27.484375 56.78125 20.515625 
Q 56.78125 9.90625 50.3125 4.234375 
Q 43.84375 -1.421875 31.78125 -1.421875 
Q 19.734375 -1.421875 13.25 4.234375 
Q 6.78125 9.90625 6.78125 20.515625 
Q 6.78125 27.484375 10.78125 32.3125 
Q 14.796875 37.15625 21.921875 38.8125 
z
M 18.3125 54.390625 
Q 18.3125 48.734375 21.84375 45.5625 
Q 25.390625 42.390625 31.78125 42.390625 
Q 38.140625 42.390625 41.71875 45.5625 
Q 45.3125 48.734375 45.3125 54.390625 
Q 45.3125 60.0625 41.71875 63.234375 
Q 38.140625 66.40625 31.78125 66.40625 
Q 25.390625 66.40625 21.84375 63.234375 
Q 18.3125 60.0625 18.3125 54.390625 
z
" id="DejaVuSans-38"/>
      </defs>
      <g transform="translate(31.6375 53.238447)scale(0.1 -0.1)">
       <use xlink:href="#DejaVuSans-38"/>
      </g>
     </g>
    </g>
    <g id="ytick_8">
     <g id="line2d_16">
      <g>
       <use style="stroke:#000000;stroke-width:0.8;" x="45" xlink:href="#m0b91ca85ae" y="28.35111"/>
      </g>
     </g>
     <g id="text_16">
      <!-- 10 -->
      <g transform="translate(25.275 32.150329)scale(0.1 -0.1)">
       <use xlink:href="#DejaVuSans-31"/>
       <use x="63.623047" xlink:href="#DejaVuSans-30"/>
      </g>
     </g>
    </g>
   </g>
   <g id="patch_3">
    <path d="M 45 192.24 
L 45 25.92 
" style="fill:none;stroke:#000000;stroke-linecap:square;stroke-linejoin:miter;stroke-width:0.8;"/>
   </g>
   <g id="patch_4">
    <path d="M 324 192.24 
L 324 25.92 
" style="fill:none;stroke:#000000;stroke-linecap:square;stroke-linejoin:miter;stroke-width:0.8;"/>
   </g>
   <g id="patch_5">
    <path d="M 45 192.24 
L 324 192.24 
" style="fill:none;stroke:#000000;stroke-linecap:square;stroke-linejoin:miter;stroke-width:0.8;"/>
   </g>
   <g id="patch_6">
    <path d="M 45 25.92 
L 324 25.92 
" style="fill:none;stroke:#000000;stroke-linecap:square;stroke-linejoin:miter;stroke-width:0.8;"/>
   </g>
   <g id="legend_1">
    <g id="patch_7">
     <path d="M 231.946875 63.27625 
L 317 63.27625 
Q 319 63.27625 319 61.27625 
L 319 32.92 
Q 319 30.92 317 30.92 
L 231.946875 30.92 
Q 229.946875 30.92 229.946875 32.92 
L 229.946875 61.27625 
Q 229.946875 63.27625 231.946875 63.27625 
z
" style="fill:#ffffff;opacity:0.8;stroke:#cccccc;stroke-linejoin:miter;"/>
    </g>
    <g id="PathCollection_3">
     <g>
      <use style="fill:#008000;stroke:#008000;stroke-width:1.5;" x="243.946875" xlink:href="#md88f109636" y="39.893437"/>
     </g>
    </g>
    <g id="text_17">
     <!-- Original -->
     <defs>
      <path d="M 39.40625 66.21875 
Q 28.65625 66.21875 22.328125 58.203125 
Q 16.015625 50.203125 16.015625 36.375 
Q 16.015625 22.609375 22.328125 14.59375 
Q 28.65625 6.59375 39.40625 6.59375 
Q 50.140625 6.59375 56.421875 14.59375 
Q 62.703125 22.609375 62.703125 36.375 
Q 62.703125 50.203125 56.421875 58.203125 
Q 50.140625 66.21875 39.40625 66.21875 
z
M 39.40625 74.21875 
Q 54.734375 74.21875 63.90625 63.9375 
Q 73.09375 53.65625 73.09375 36.375 
Q 73.09375 19.140625 63.90625 8.859375 
Q 54.734375 -1.421875 39.40625 -1.421875 
Q 24.03125 -1.421875 14.8125 8.828125 
Q 5.609375 19.09375 5.609375 36.375 
Q 5.609375 53.65625 14.8125 63.9375 
Q 24.03125 74.21875 39.40625 74.21875 
z
" id="DejaVuSans-4f"/>
      <path d="M 41.109375 46.296875 
Q 39.59375 47.171875 37.8125 47.578125 
Q 36.03125 48 33.890625 48 
Q 26.265625 48 22.1875 43.046875 
Q 18.109375 38.09375 18.109375 28.8125 
L 18.109375 0 
L 9.078125 0 
L 9.078125 54.6875 
L 18.109375 54.6875 
L 18.109375 46.1875 
Q 20.953125 51.171875 25.484375 53.578125 
Q 30.03125 56 36.53125 56 
Q 37.453125 56 38.578125 55.875 
Q 39.703125 55.765625 41.0625 55.515625 
z
" id="DejaVuSans-72"/>
      <path d="M 9.421875 54.6875 
L 18.40625 54.6875 
L 18.40625 0 
L 9.421875 0 
z
M 9.421875 75.984375 
L 18.40625 75.984375 
L 18.40625 64.59375 
L 9.421875 64.59375 
z
" id="DejaVuSans-69"/>
      <path d="M 45.40625 27.984375 
Q 45.40625 37.75 41.375 43.109375 
Q 37.359375 48.484375 30.078125 48.484375 
Q 22.859375 48.484375 18.828125 43.109375 
Q 14.796875 37.75 14.796875 27.984375 
Q 14.796875 18.265625 18.828125 12.890625 
Q 22.859375 7.515625 30.078125 7.515625 
Q 37.359375 7.515625 41.375 12.890625 
Q 45.40625 18.265625 45.40625 27.984375 
z
M 54.390625 6.78125 
Q 54.390625 -7.171875 48.1875 -13.984375 
Q 42 -20.796875 29.203125 -20.796875 
Q 24.46875 -20.796875 20.265625 -20.09375 
Q 16.0625 -19.390625 12.109375 -17.921875 
L 12.109375 -9.1875 
Q 16.0625 -11.328125 19.921875 -12.34375 
Q 23.78125 -13.375 27.78125 -13.375 
Q 36.625 -13.375 41.015625 -8.765625 
Q 45.40625 -4.15625 45.40625 5.171875 
L 45.40625 9.625 
Q 42.625 4.78125 38.28125 2.390625 
Q 33.9375 0 27.875 0 
Q 17.828125 0 11.671875 7.65625 
Q 5.515625 15.328125 5.515625 27.984375 
Q 5.515625 40.671875 11.671875 48.328125 
Q 17.828125 56 27.875 56 
Q 33.9375 56 38.28125 53.609375 
Q 42.625 51.21875 45.40625 46.390625 
L 45.40625 54.6875 
L 54.390625 54.6875 
z
" id="DejaVuSans-67"/>
      <path d="M 54.890625 33.015625 
L 54.890625 0 
L 45.90625 0 
L 45.90625 32.71875 
Q 45.90625 40.484375 42.875 44.328125 
Q 39.84375 48.1875 33.796875 48.1875 
Q 26.515625 48.1875 22.3125 43.546875 
Q 18.109375 38.921875 18.109375 30.90625 
L 18.109375 0 
L 9.078125 0 
L 9.078125 54.6875 
L 18.109375 54.6875 
L 18.109375 46.1875 
Q 21.34375 51.125 25.703125 53.5625 
Q 30.078125 56 35.796875 56 
Q 45.21875 56 50.046875 50.171875 
Q 54.890625 44.34375 54.890625 33.015625 
z
" id="DejaVuSans-6e"/>
      <path d="M 34.28125 27.484375 
Q 23.390625 27.484375 19.1875 25 
Q 14.984375 22.515625 14.984375 16.5 
Q 14.984375 11.71875 18.140625 8.90625 
Q 21.296875 6.109375 26.703125 6.109375 
Q 34.1875 6.109375 38.703125 11.40625 
Q 43.21875 16.703125 43.21875 25.484375 
L 43.21875 27.484375 
z
M 52.203125 31.203125 
L 52.203125 0 
L 43.21875 0 
L 43.21875 8.296875 
Q 40.140625 3.328125 35.546875 0.953125 
Q 30.953125 -1.421875 24.3125 -1.421875 
Q 15.921875 -1.421875 10.953125 3.296875 
Q 6 8.015625 6 15.921875 
Q 6 25.140625 12.171875 29.828125 
Q 18.359375 34.515625 30.609375 34.515625 
L 43.21875 34.515625 
L 43.21875 35.40625 
Q 43.21875 41.609375 39.140625 45 
Q 35.0625 48.390625 27.6875 48.390625 
Q 23 48.390625 18.546875 47.265625 
Q 14.109375 46.140625 10.015625 43.890625 
L 10.015625 52.203125 
Q 14.9375 54.109375 19.578125 55.046875 
Q 24.21875 56 28.609375 56 
Q 40.484375 56 46.34375 49.84375 
Q 52.203125 43.703125 52.203125 31.203125 
z
" id="DejaVuSans-61"/>
      <path d="M 9.421875 75.984375 
L 18.40625 75.984375 
L 18.40625 0 
L 9.421875 0 
z
" id="DejaVuSans-6c"/>
     </defs>
     <g transform="translate(261.946875 42.518437)scale(0.1 -0.1)">
      <use xlink:href="#DejaVuSans-4f"/>
      <use x="78.710938" xlink:href="#DejaVuSans-72"/>
      <use x="119.824219" xlink:href="#DejaVuSans-69"/>
      <use x="147.607422" xlink:href="#DejaVuSans-67"/>
      <use x="211.083984" xlink:href="#DejaVuSans-69"/>
      <use x="238.867188" xlink:href="#DejaVuSans-6e"/>
      <use x="302.246094" xlink:href="#DejaVuSans-61"/>
      <use x="363.525391" xlink:href="#DejaVuSans-6c"/>
     </g>
    </g>
    <g id="PathCollection_4">
     <g>
      <use style="fill:#ff0000;stroke:#ff0000;stroke-width:1.5;" x="243.946875" xlink:href="#mb9e81df96a" y="54.571562"/>
     </g>
    </g>
    <g id="text_18">
     <!-- Generated -->
     <defs>
      <path d="M 59.515625 10.40625 
L 59.515625 29.984375 
L 43.40625 29.984375 
L 43.40625 38.09375 
L 69.28125 38.09375 
L 69.28125 6.78125 
Q 63.578125 2.734375 56.6875 0.65625 
Q 49.8125 -1.421875 42 -1.421875 
Q 24.90625 -1.421875 15.25 8.5625 
Q 5.609375 18.5625 5.609375 36.375 
Q 5.609375 54.25 15.25 64.234375 
Q 24.90625 74.21875 42 74.21875 
Q 49.125 74.21875 55.546875 72.453125 
Q 61.96875 70.703125 67.390625 67.28125 
L 67.390625 56.78125 
Q 61.921875 61.421875 55.765625 63.765625 
Q 49.609375 66.109375 42.828125 66.109375 
Q 29.4375 66.109375 22.71875 58.640625 
Q 16.015625 51.171875 16.015625 36.375 
Q 16.015625 21.625 22.71875 14.15625 
Q 29.4375 6.6875 42.828125 6.6875 
Q 48.046875 6.6875 52.140625 7.59375 
Q 56.25 8.5 59.515625 10.40625 
z
" id="DejaVuSans-47"/>
      <path d="M 56.203125 29.59375 
L 56.203125 25.203125 
L 14.890625 25.203125 
Q 15.484375 15.921875 20.484375 11.0625 
Q 25.484375 6.203125 34.421875 6.203125 
Q 39.59375 6.203125 44.453125 7.46875 
Q 49.3125 8.734375 54.109375 11.28125 
L 54.109375 2.78125 
Q 49.265625 0.734375 44.1875 -0.34375 
Q 39.109375 -1.421875 33.890625 -1.421875 
Q 20.796875 -1.421875 13.15625 6.1875 
Q 5.515625 13.8125 5.515625 26.8125 
Q 5.515625 40.234375 12.765625 48.109375 
Q 20.015625 56 32.328125 56 
Q 43.359375 56 49.78125 48.890625 
Q 56.203125 41.796875 56.203125 29.59375 
z
M 47.21875 32.234375 
Q 47.125 39.59375 43.09375 43.984375 
Q 39.0625 48.390625 32.421875 48.390625 
Q 24.90625 48.390625 20.390625 44.140625 
Q 15.875 39.890625 15.1875 32.171875 
z
" id="DejaVuSans-65"/>
      <path d="M 18.3125 70.21875 
L 18.3125 54.6875 
L 36.8125 54.6875 
L 36.8125 47.703125 
L 18.3125 47.703125 
L 18.3125 18.015625 
Q 18.3125 11.328125 20.140625 9.421875 
Q 21.96875 7.515625 27.59375 7.515625 
L 36.8125 7.515625 
L 36.8125 0 
L 27.59375 0 
Q 17.1875 0 13.234375 3.875 
Q 9.28125 7.765625 9.28125 18.015625 
L 9.28125 47.703125 
L 2.6875 47.703125 
L 2.6875 54.6875 
L 9.28125 54.6875 
L 9.28125 70.21875 
z
" id="DejaVuSans-74"/>
      <path d="M 45.40625 46.390625 
L 45.40625 75.984375 
L 54.390625 75.984375 
L 54.390625 0 
L 45.40625 0 
L 45.40625 8.203125 
Q 42.578125 3.328125 38.25 0.953125 
Q 33.9375 -1.421875 27.875 -1.421875 
Q 17.96875 -1.421875 11.734375 6.484375 
Q 5.515625 14.40625 5.515625 27.296875 
Q 5.515625 40.1875 11.734375 48.09375 
Q 17.96875 56 27.875 56 
Q 33.9375 56 38.25 53.625 
Q 42.578125 51.265625 45.40625 46.390625 
z
M 14.796875 27.296875 
Q 14.796875 17.390625 18.875 11.75 
Q 22.953125 6.109375 30.078125 6.109375 
Q 37.203125 6.109375 41.296875 11.75 
Q 45.40625 17.390625 45.40625 27.296875 
Q 45.40625 37.203125 41.296875 42.84375 
Q 37.203125 48.484375 30.078125 48.484375 
Q 22.953125 48.484375 18.875 42.84375 
Q 14.796875 37.203125 14.796875 27.296875 
z
" id="DejaVuSans-64"/>
     </defs>
     <g transform="translate(261.946875 57.196562)scale(0.1 -0.1)">
      <use xlink:href="#DejaVuSans-47"/>
      <use x="77.490234" xlink:href="#DejaVuSans-65"/>
      <use x="139.013672" xlink:href="#DejaVuSans-6e"/>
      <use x="202.392578" xlink:href="#DejaVuSans-65"/>
      <use x="263.916016" xlink:href="#DejaVuSans-72"/>
      <use x="305.029297" xlink:href="#DejaVuSans-61"/>
      <use x="366.308594" xlink:href="#DejaVuSans-74"/>
      <use x="405.517578" xlink:href="#DejaVuSans-65"/>
      <use x="467.041016" xlink:href="#DejaVuSans-64"/>
     </g>
    </g>
   </g>
  </g>
 </g>
 <defs>
  <clipPath id="p97d282a41d">
   <rect height="166.32" width="279" x="45" y="25.92"/>
  </clipPath>
 </defs>
</svg>
