<?xml version="1.0" encoding="utf-8" standalone="no"?>
<!DOCTYPE svg PUBLIC "-//W3C//DTD SVG 1.1//EN"
  "http://www.w3.org/Graphics/SVG/1.1/DTD/svg11.dtd">
<!-- Created with matplotlib (http://matplotlib.org/) -->
<svg height="216pt" version="1.1" viewBox="0 0 360 216" width="360pt" xmlns="http://www.w3.org/2000/svg" xmlns:xlink="http://www.w3.org/1999/xlink">
 <defs>
  <style type="text/css">
*{stroke-linecap:butt;stroke-linejoin:round;}
  </style>
 </defs>
 <g id="figure_1">
  <g id="patch_1">
   <path d="M 0 216 
L 360 216 
L 360 0 
L 0 0 
z
" style="fill:#ffffff;"/>
  </g>
  <g id="axes_1">
   <g id="patch_2">
    <path d="M 45 192.24 
L 324 192.24 
L 324 25.92 
L 45 25.92 
z
" style="fill:#ffffff;"/>
   </g>
   <g id="PathCollection_1">
    <defs>
     <path d="M -3.535534 3.535534 
L 3.535534 -3.535534 
M -3.535534 -3.535534 
L 3.535534 3.535534 
" id="mcc50cacfe6" style="stroke:#008000;stroke-width:1.5;"/>
    </defs>
    <g clip-path="url(#p6548e43fba)">
     <use style="fill:#008000;stroke:#008000;stroke-width:1.5;" x="284.299835" xlink:href="#mcc50cacfe6" y="54.901369"/>
     <use style="fill:#008000;stroke:#008000;stroke-width:1.5;" x="254.439129" xlink:href="#mcc50cacfe6" y="69.043838"/>
     <use style="fill:#008000;stroke:#008000;stroke-width:1.5;" x="132.354812" xlink:href="#mcc50cacfe6" y="160.320617"/>
     <use style="fill:#008000;stroke:#008000;stroke-width:1.5;" x="107.920399" xlink:href="#mcc50cacfe6" y="157.704641"/>
     <use style="fill:#008000;stroke:#008000;stroke-width:1.5;" x="268.543672" xlink:href="#mcc50cacfe6" y="49.942793"/>
     <use style="fill:#008000;stroke:#008000;stroke-width:1.5;" x="259.874088" xlink:href="#mcc50cacfe6" y="65.964946"/>
     <use style="fill:#008000;stroke:#008000;stroke-width:1.5;" x="125.320209" xlink:href="#mcc50cacfe6" y="159.71792"/>
     <use style="fill:#008000;stroke:#008000;stroke-width:1.5;" x="265.175819" xlink:href="#mcc50cacfe6" y="48.675985"/>
     <use style="fill:#008000;stroke:#008000;stroke-width:1.5;" x="250.534852" xlink:href="#mcc50cacfe6" y="64.61722"/>
     <use style="fill:#008000;stroke:#008000;stroke-width:1.5;" x="133.249187" xlink:href="#mcc50cacfe6" y="161.424382"/>
     <use style="fill:#008000;stroke:#008000;stroke-width:1.5;" x="263.322539" xlink:href="#mcc50cacfe6" y="38.22179"/>
     <use style="fill:#008000;stroke:#008000;stroke-width:1.5;" x="270.342629" xlink:href="#mcc50cacfe6" y="59.548031"/>
     <use style="fill:#008000;stroke:#008000;stroke-width:1.5;" x="262.775043" xlink:href="#mcc50cacfe6" y="49.814692"/>
     <use style="fill:#008000;stroke:#008000;stroke-width:1.5;" x="90.30183" xlink:href="#mcc50cacfe6" y="170.953553"/>
     <use style="fill:#008000;stroke:#008000;stroke-width:1.5;" x="293.434376" xlink:href="#mcc50cacfe6" y="71.036399"/>
     <use style="fill:#008000;stroke:#008000;stroke-width:1.5;" x="247.494349" xlink:href="#mcc50cacfe6" y="67.599502"/>
     <use style="fill:#008000;stroke:#008000;stroke-width:1.5;" x="73.596853" xlink:href="#mcc50cacfe6" y="172.309866"/>
     <use style="fill:#008000;stroke:#008000;stroke-width:1.5;" x="288.485153" xlink:href="#mcc50cacfe6" y="44.495263"/>
     <use style="fill:#008000;stroke:#008000;stroke-width:1.5;" x="254.560304" xlink:href="#mcc50cacfe6" y="65.061878"/>
     <use style="fill:#008000;stroke:#008000;stroke-width:1.5;" x="268.625964" xlink:href="#mcc50cacfe6" y="49.832607"/>
     <use style="fill:#008000;stroke:#008000;stroke-width:1.5;" x="80.284566" xlink:href="#mcc50cacfe6" y="169.417078"/>
     <use style="fill:#008000;stroke:#008000;stroke-width:1.5;" x="92.811558" xlink:href="#mcc50cacfe6" y="165.293079"/>
     <use style="fill:#008000;stroke:#008000;stroke-width:1.5;" x="96.273685" xlink:href="#mcc50cacfe6" y="162.557943"/>
     <use style="fill:#008000;stroke:#008000;stroke-width:1.5;" x="119.835076" xlink:href="#mcc50cacfe6" y="158.116438"/>
     <use style="fill:#008000;stroke:#008000;stroke-width:1.5;" x="126.186971" xlink:href="#mcc50cacfe6" y="155.629249"/>
     <use style="fill:#008000;stroke:#008000;stroke-width:1.5;" x="130.808646" xlink:href="#mcc50cacfe6" y="155.766088"/>
     <use style="fill:#008000;stroke:#008000;stroke-width:1.5;" x="71.43414" xlink:href="#mcc50cacfe6" y="174.95227"/>
     <use style="fill:#008000;stroke:#008000;stroke-width:1.5;" x="90.319862" xlink:href="#mcc50cacfe6" y="170.902789"/>
     <use style="fill:#008000;stroke:#008000;stroke-width:1.5;" x="74.726365" xlink:href="#mcc50cacfe6" y="169.592297"/>
     <use style="fill:#008000;stroke:#008000;stroke-width:1.5;" x="256.110301" xlink:href="#mcc50cacfe6" y="63.345279"/>
     <use style="fill:#008000;stroke:#008000;stroke-width:1.5;" x="262.943684" xlink:href="#mcc50cacfe6" y="35.180584"/>
     <use style="fill:#008000;stroke:#008000;stroke-width:1.5;" x="299.234411" xlink:href="#mcc50cacfe6" y="64.475543"/>
     <use style="fill:#008000;stroke:#008000;stroke-width:1.5;" x="99.423934" xlink:href="#mcc50cacfe6" y="153.154008"/>
     <use style="fill:#008000;stroke:#008000;stroke-width:1.5;" x="114.217845" xlink:href="#mcc50cacfe6" y="159.923567"/>
     <use style="fill:#008000;stroke:#008000;stroke-width:1.5;" x="72.469017" xlink:href="#mcc50cacfe6" y="169.92666"/>
     <use style="fill:#008000;stroke:#008000;stroke-width:1.5;" x="244.031834" xlink:href="#mcc50cacfe6" y="64.500211"/>
     <use style="fill:#008000;stroke:#008000;stroke-width:1.5;" x="269.564687" xlink:href="#mcc50cacfe6" y="41.63867"/>
     <use style="fill:#008000;stroke:#008000;stroke-width:1.5;" x="240.166603" xlink:href="#mcc50cacfe6" y="57.55334"/>
     <use style="fill:#008000;stroke:#008000;stroke-width:1.5;" x="282.493753" xlink:href="#mcc50cacfe6" y="53.563959"/>
     <use style="fill:#008000;stroke:#008000;stroke-width:1.5;" x="89.228125" xlink:href="#mcc50cacfe6" y="171.494405"/>
     <use style="fill:#008000;stroke:#008000;stroke-width:1.5;" x="137.168" xlink:href="#mcc50cacfe6" y="157.318539"/>
     <use style="fill:#008000;stroke:#008000;stroke-width:1.5;" x="267.119333" xlink:href="#mcc50cacfe6" y="51.561178"/>
     <use style="fill:#008000;stroke:#008000;stroke-width:1.5;" x="238.223084" xlink:href="#mcc50cacfe6" y="61.129996"/>
     <use style="fill:#008000;stroke:#008000;stroke-width:1.5;" x="107.818649" xlink:href="#mcc50cacfe6" y="162.700052"/>
     <use style="fill:#008000;stroke:#008000;stroke-width:1.5;" x="60.80882" xlink:href="#mcc50cacfe6" y="174.561308"/>
     <use style="fill:#008000;stroke:#008000;stroke-width:1.5;" x="259.508699" xlink:href="#mcc50cacfe6" y="36.622188"/>
     <use style="fill:#008000;stroke:#008000;stroke-width:1.5;" x="239.818261" xlink:href="#mcc50cacfe6" y="57.475957"/>
     <use style="fill:#008000;stroke:#008000;stroke-width:1.5;" x="136.962406" xlink:href="#mcc50cacfe6" y="157.360818"/>
     <use style="fill:#008000;stroke:#008000;stroke-width:1.5;" x="217.453407" xlink:href="#mcc50cacfe6" y="53.536625"/>
     <use style="fill:#008000;stroke:#008000;stroke-width:1.5;" x="296.15655" xlink:href="#mcc50cacfe6" y="67.893915"/>
     <use style="fill:#008000;stroke:#008000;stroke-width:1.5;" x="58.884709" xlink:href="#mcc50cacfe6" y="170.17452"/>
     <use style="fill:#008000;stroke:#008000;stroke-width:1.5;" x="240.450012" xlink:href="#mcc50cacfe6" y="62.950875"/>
     <use style="fill:#008000;stroke:#008000;stroke-width:1.5;" x="228.531479" xlink:href="#mcc50cacfe6" y="56.564064"/>
     <use style="fill:#008000;stroke:#008000;stroke-width:1.5;" x="289.372502" xlink:href="#mcc50cacfe6" y="69.959552"/>
     <use style="fill:#008000;stroke:#008000;stroke-width:1.5;" x="307.703268" xlink:href="#mcc50cacfe6" y="64.684811"/>
     <use style="fill:#008000;stroke:#008000;stroke-width:1.5;" x="259.529018" xlink:href="#mcc50cacfe6" y="36.509905"/>
     <use style="fill:#008000;stroke:#008000;stroke-width:1.5;" x="113.283622" xlink:href="#mcc50cacfe6" y="155.351439"/>
     <use style="fill:#008000;stroke:#008000;stroke-width:1.5;" x="81.240329" xlink:href="#mcc50cacfe6" y="174.038458"/>
     <use style="fill:#008000;stroke:#008000;stroke-width:1.5;" x="126.146099" xlink:href="#mcc50cacfe6" y="155.67689"/>
     <use style="fill:#008000;stroke:#008000;stroke-width:1.5;" x="84.140725" xlink:href="#mcc50cacfe6" y="173.7625"/>
     <use style="fill:#008000;stroke:#008000;stroke-width:1.5;" x="71.419692" xlink:href="#mcc50cacfe6" y="174.966456"/>
     <use style="fill:#008000;stroke:#008000;stroke-width:1.5;" x="228.833611" xlink:href="#mcc50cacfe6" y="58.409004"/>
     <use style="fill:#008000;stroke:#008000;stroke-width:1.5;" x="92.911401" xlink:href="#mcc50cacfe6" y="162.618877"/>
     <use style="fill:#008000;stroke:#008000;stroke-width:1.5;" x="243.423448" xlink:href="#mcc50cacfe6" y="58.432239"/>
     <use style="fill:#008000;stroke:#008000;stroke-width:1.5;" x="63.070235" xlink:href="#mcc50cacfe6" y="176.302882"/>
     <use style="fill:#008000;stroke:#008000;stroke-width:1.5;" x="132.798404" xlink:href="#mcc50cacfe6" y="159.208101"/>
     <use style="fill:#008000;stroke:#008000;stroke-width:1.5;" x="255.912238" xlink:href="#mcc50cacfe6" y="63.406952"/>
     <use style="fill:#008000;stroke:#008000;stroke-width:1.5;" x="226.715117" xlink:href="#mcc50cacfe6" y="54.635174"/>
     <use style="fill:#008000;stroke:#008000;stroke-width:1.5;" x="99.443924" xlink:href="#mcc50cacfe6" y="153.150533"/>
     <use style="fill:#008000;stroke:#008000;stroke-width:1.5;" x="255.035434" xlink:href="#mcc50cacfe6" y="33.546648"/>
     <use style="fill:#008000;stroke:#008000;stroke-width:1.5;" x="253.665468" xlink:href="#mcc50cacfe6" y="37.218041"/>
     <use style="fill:#008000;stroke:#008000;stroke-width:1.5;" x="106.042252" xlink:href="#mcc50cacfe6" y="157.971006"/>
     <use style="fill:#008000;stroke:#008000;stroke-width:1.5;" x="90.300339" xlink:href="#mcc50cacfe6" y="170.913698"/>
     <use style="fill:#008000;stroke:#008000;stroke-width:1.5;" x="283.754887" xlink:href="#mcc50cacfe6" y="43.810379"/>
     <use style="fill:#008000;stroke:#008000;stroke-width:1.5;" x="126.779384" xlink:href="#mcc50cacfe6" y="155.593348"/>
     <use style="fill:#008000;stroke:#008000;stroke-width:1.5;" x="257.145074" xlink:href="#mcc50cacfe6" y="33.803772"/>
     <use style="fill:#008000;stroke:#008000;stroke-width:1.5;" x="216.196238" xlink:href="#mcc50cacfe6" y="55.835708"/>
     <use style="fill:#008000;stroke:#008000;stroke-width:1.5;" x="295.492817" xlink:href="#mcc50cacfe6" y="71.192602"/>
     <use style="fill:#008000;stroke:#008000;stroke-width:1.5;" x="255.47189" xlink:href="#mcc50cacfe6" y="61.955523"/>
     <use style="fill:#008000;stroke:#008000;stroke-width:1.5;" x="261.661425" xlink:href="#mcc50cacfe6" y="69.699807"/>
     <use style="fill:#008000;stroke:#008000;stroke-width:1.5;" x="264.088121" xlink:href="#mcc50cacfe6" y="35.536314"/>
     <use style="fill:#008000;stroke:#008000;stroke-width:1.5;" x="307.800228" xlink:href="#mcc50cacfe6" y="64.755966"/>
    </g>
   </g>
   <g id="PathCollection_2">
    <defs>
     <path d="M -3.535534 0 
L 3.535534 0 
M 0 3.535534 
L 0 -3.535534 
" id="mc1813e1be8" style="stroke:#ff0000;stroke-width:1.5;"/>
    </defs>
    <g clip-path="url(#p6548e43fba)">
     <use style="fill:#ff0000;stroke:#ff0000;stroke-width:1.5;" x="305.494504" xlink:href="#mc1813e1be8" y="66.75929"/>
     <use style="fill:#ff0000;stroke:#ff0000;stroke-width:1.5;" x="88.655586" xlink:href="#mc1813e1be8" y="163.09429"/>
     <use style="fill:#ff0000;stroke:#ff0000;stroke-width:1.5;" x="61.239652" xlink:href="#mc1813e1be8" y="167.254144"/>
     <use style="fill:#ff0000;stroke:#ff0000;stroke-width:1.5;" x="279.12442" xlink:href="#mc1813e1be8" y="51.516162"/>
     <use style="fill:#ff0000;stroke:#ff0000;stroke-width:1.5;" x="73.249069" xlink:href="#mc1813e1be8" y="163.999165"/>
     <use style="fill:#ff0000;stroke:#ff0000;stroke-width:1.5;" x="69.176573" xlink:href="#mc1813e1be8" y="165.597326"/>
     <use style="fill:#ff0000;stroke:#ff0000;stroke-width:1.5;" x="86.518832" xlink:href="#mc1813e1be8" y="163.846147"/>
     <use style="fill:#ff0000;stroke:#ff0000;stroke-width:1.5;" x="118.709225" xlink:href="#mc1813e1be8" y="147.200015"/>
     <use style="fill:#ff0000;stroke:#ff0000;stroke-width:1.5;" x="218.901032" xlink:href="#mc1813e1be8" y="54.792225"/>
     <use style="fill:#ff0000;stroke:#ff0000;stroke-width:1.5;" x="293.12074" xlink:href="#mc1813e1be8" y="43.301145"/>
     <use style="fill:#ff0000;stroke:#ff0000;stroke-width:1.5;" x="84.33642" xlink:href="#mc1813e1be8" y="182.226057"/>
     <use style="fill:#ff0000;stroke:#ff0000;stroke-width:1.5;" x="308.817872" xlink:href="#mc1813e1be8" y="63.714459"/>
     <use style="fill:#ff0000;stroke:#ff0000;stroke-width:1.5;" x="68.271498" xlink:href="#mc1813e1be8" y="166.214453"/>
     <use style="fill:#ff0000;stroke:#ff0000;stroke-width:1.5;" x="70.080003" xlink:href="#mc1813e1be8" y="163.019789"/>
     <use style="fill:#ff0000;stroke:#ff0000;stroke-width:1.5;" x="278.828992" xlink:href="#mc1813e1be8" y="51.648499"/>
     <use style="fill:#ff0000;stroke:#ff0000;stroke-width:1.5;" x="284.457317" xlink:href="#mc1813e1be8" y="47.43612"/>
     <use style="fill:#ff0000;stroke:#ff0000;stroke-width:1.5;" x="240.654291" xlink:href="#mc1813e1be8" y="40.800103"/>
     <use style="fill:#ff0000;stroke:#ff0000;stroke-width:1.5;" x="242.104752" xlink:href="#mc1813e1be8" y="40.126556"/>
     <use style="fill:#ff0000;stroke:#ff0000;stroke-width:1.5;" x="240.392888" xlink:href="#mc1813e1be8" y="42.27941"/>
     <use style="fill:#ff0000;stroke:#ff0000;stroke-width:1.5;" x="271.384395" xlink:href="#mc1813e1be8" y="39.166033"/>
     <use style="fill:#ff0000;stroke:#ff0000;stroke-width:1.5;" x="63.209377" xlink:href="#mc1813e1be8" y="167.434372"/>
     <use style="fill:#ff0000;stroke:#ff0000;stroke-width:1.5;" x="64.462871" xlink:href="#mc1813e1be8" y="163.776255"/>
     <use style="fill:#ff0000;stroke:#ff0000;stroke-width:1.5;" x="258.905685" xlink:href="#mc1813e1be8" y="66.054061"/>
     <use style="fill:#ff0000;stroke:#ff0000;stroke-width:1.5;" x="60.946844" xlink:href="#mc1813e1be8" y="164.951137"/>
     <use style="fill:#ff0000;stroke:#ff0000;stroke-width:1.5;" x="221.741174" xlink:href="#mc1813e1be8" y="56.171765"/>
     <use style="fill:#ff0000;stroke:#ff0000;stroke-width:1.5;" x="222.330335" xlink:href="#mc1813e1be8" y="53.377693"/>
     <use style="fill:#ff0000;stroke:#ff0000;stroke-width:1.5;" x="260.815349" xlink:href="#mc1813e1be8" y="64.622295"/>
     <use style="fill:#ff0000;stroke:#ff0000;stroke-width:1.5;" x="221.024102" xlink:href="#mc1813e1be8" y="54.022561"/>
     <use style="fill:#ff0000;stroke:#ff0000;stroke-width:1.5;" x="260.922459" xlink:href="#mc1813e1be8" y="48.391447"/>
     <use style="fill:#ff0000;stroke:#ff0000;stroke-width:1.5;" x="307.987614" xlink:href="#mc1813e1be8" y="62.95161"/>
     <use style="fill:#ff0000;stroke:#ff0000;stroke-width:1.5;" x="69.176529" xlink:href="#mc1813e1be8" y="165.597371"/>
     <use style="fill:#ff0000;stroke:#ff0000;stroke-width:1.5;" x="64.462871" xlink:href="#mc1813e1be8" y="163.776255"/>
     <use style="fill:#ff0000;stroke:#ff0000;stroke-width:1.5;" x="281.027452" xlink:href="#mc1813e1be8" y="44.80485"/>
     <use style="fill:#ff0000;stroke:#ff0000;stroke-width:1.5;" x="219.184854" xlink:href="#mc1813e1be8" y="66.970929"/>
     <use style="fill:#ff0000;stroke:#ff0000;stroke-width:1.5;" x="119.40887" xlink:href="#mc1813e1be8" y="147.471027"/>
     <use style="fill:#ff0000;stroke:#ff0000;stroke-width:1.5;" x="109.394966" xlink:href="#mc1813e1be8" y="160.728023"/>
     <use style="fill:#ff0000;stroke:#ff0000;stroke-width:1.5;" x="292.411832" xlink:href="#mc1813e1be8" y="45.114857"/>
     <use style="fill:#ff0000;stroke:#ff0000;stroke-width:1.5;" x="71.179074" xlink:href="#mc1813e1be8" y="169.235654"/>
     <use style="fill:#ff0000;stroke:#ff0000;stroke-width:1.5;" x="240.654291" xlink:href="#mc1813e1be8" y="40.800103"/>
     <use style="fill:#ff0000;stroke:#ff0000;stroke-width:1.5;" x="222.838034" xlink:href="#mc1813e1be8" y="53.080336"/>
     <use style="fill:#ff0000;stroke:#ff0000;stroke-width:1.5;" x="86.173372" xlink:href="#mc1813e1be8" y="163.483761"/>
     <use style="fill:#ff0000;stroke:#ff0000;stroke-width:1.5;" x="279.098276" xlink:href="#mc1813e1be8" y="51.489235"/>
     <use style="fill:#ff0000;stroke:#ff0000;stroke-width:1.5;" x="256.622187" xlink:href="#mc1813e1be8" y="59.04901"/>
     <use style="fill:#ff0000;stroke:#ff0000;stroke-width:1.5;" x="286.167919" xlink:href="#mc1813e1be8" y="41.242622"/>
     <use style="fill:#ff0000;stroke:#ff0000;stroke-width:1.5;" x="259.323456" xlink:href="#mc1813e1be8" y="46.216093"/>
     <use style="fill:#ff0000;stroke:#ff0000;stroke-width:1.5;" x="84.364637" xlink:href="#mc1813e1be8" y="182.27433"/>
     <use style="fill:#ff0000;stroke:#ff0000;stroke-width:1.5;" x="290.699179" xlink:href="#mc1813e1be8" y="69.598723"/>
     <use style="fill:#ff0000;stroke:#ff0000;stroke-width:1.5;" x="250.345372" xlink:href="#mc1813e1be8" y="36.357173"/>
     <use style="fill:#ff0000;stroke:#ff0000;stroke-width:1.5;" x="280.337245" xlink:href="#mc1813e1be8" y="43.873024"/>
     <use style="fill:#ff0000;stroke:#ff0000;stroke-width:1.5;" x="275.9949" xlink:href="#mc1813e1be8" y="67.843396"/>
     <use style="fill:#ff0000;stroke:#ff0000;stroke-width:1.5;" x="60.182128" xlink:href="#mc1813e1be8" y="165.513601"/>
     <use style="fill:#ff0000;stroke:#ff0000;stroke-width:1.5;" x="263.322424" xlink:href="#mc1813e1be8" y="66.255925"/>
     <use style="fill:#ff0000;stroke:#ff0000;stroke-width:1.5;" x="294.216763" xlink:href="#mc1813e1be8" y="72.617902"/>
     <use style="fill:#ff0000;stroke:#ff0000;stroke-width:1.5;" x="231.478993" xlink:href="#mc1813e1be8" y="37.945653"/>
     <use style="fill:#ff0000;stroke:#ff0000;stroke-width:1.5;" x="267.30279" xlink:href="#mc1813e1be8" y="62.185572"/>
     <use style="fill:#ff0000;stroke:#ff0000;stroke-width:1.5;" x="86.173372" xlink:href="#mc1813e1be8" y="163.483761"/>
     <use style="fill:#ff0000;stroke:#ff0000;stroke-width:1.5;" x="240.639525" xlink:href="#mc1813e1be8" y="40.803272"/>
     <use style="fill:#ff0000;stroke:#ff0000;stroke-width:1.5;" x="63.209969" xlink:href="#mc1813e1be8" y="167.436045"/>
     <use style="fill:#ff0000;stroke:#ff0000;stroke-width:1.5;" x="250.326775" xlink:href="#mc1813e1be8" y="36.365828"/>
     <use style="fill:#ff0000;stroke:#ff0000;stroke-width:1.5;" x="282.477825" xlink:href="#mc1813e1be8" y="42.187663"/>
    </g>
   </g>
   <g id="matplotlib.axis_1">
    <g id="xtick_1">
     <g id="line2d_1">
      <defs>
       <path d="M 0 0 
L 0 3.5 
" id="ma147e870e2" style="stroke:#000000;stroke-width:0.8;"/>
      </defs>
      <g>
       <use style="stroke:#000000;stroke-width:0.8;" x="71.604908" xlink:href="#ma147e870e2" y="192.24"/>
      </g>
     </g>
     <g id="text_1">
      <!-- −10 -->
      <defs>
       <path d="M 10.59375 35.5 
L 73.1875 35.5 
L 73.1875 27.203125 
L 10.59375 27.203125 
z
" id="DejaVuSans-2212"/>
       <path d="M 12.40625 8.296875 
L 28.515625 8.296875 
L 28.515625 63.921875 
L 10.984375 60.40625 
L 10.984375 69.390625 
L 28.421875 72.90625 
L 38.28125 72.90625 
L 38.28125 8.296875 
L 54.390625 8.296875 
L 54.390625 0 
L 12.40625 0 
z
" id="DejaVuSans-31"/>
       <path d="M 31.78125 66.40625 
Q 24.171875 66.40625 20.328125 58.90625 
Q 16.5 51.421875 16.5 36.375 
Q 16.5 21.390625 20.328125 13.890625 
Q 24.171875 6.390625 31.78125 6.390625 
Q 39.453125 6.390625 43.28125 13.890625 
Q 47.125 21.390625 47.125 36.375 
Q 47.125 51.421875 43.28125 58.90625 
Q 39.453125 66.40625 31.78125 66.40625 
z
M 31.78125 74.21875 
Q 44.046875 74.21875 50.515625 64.515625 
Q 56.984375 54.828125 56.984375 36.375 
Q 56.984375 17.96875 50.515625 8.265625 
Q 44.046875 -1.421875 31.78125 -1.421875 
Q 19.53125 -1.421875 13.0625 8.265625 
Q 6.59375 17.96875 6.59375 36.375 
Q 6.59375 54.828125 13.0625 64.515625 
Q 19.53125 74.21875 31.78125 74.21875 
z
" id="DejaVuSans-30"/>
      </defs>
      <g transform="translate(61.052564 206.838437)scale(0.1 -0.1)">
       <use xlink:href="#DejaVuSans-2212"/>
       <use x="83.789062" xlink:href="#DejaVuSans-31"/>
       <use x="147.412109" xlink:href="#DejaVuSans-30"/>
      </g>
     </g>
    </g>
    <g id="xtick_2">
     <g id="line2d_2">
      <g>
       <use style="stroke:#000000;stroke-width:0.8;" x="129.077873" xlink:href="#ma147e870e2" y="192.24"/>
      </g>
     </g>
     <g id="text_2">
      <!-- −5 -->
      <defs>
       <path d="M 10.796875 72.90625 
L 49.515625 72.90625 
L 49.515625 64.59375 
L 19.828125 64.59375 
L 19.828125 46.734375 
Q 21.96875 47.46875 24.109375 47.828125 
Q 26.265625 48.1875 28.421875 48.1875 
Q 40.625 48.1875 47.75 41.5 
Q 54.890625 34.8125 54.890625 23.390625 
Q 54.890625 11.625 47.5625 5.09375 
Q 40.234375 -1.421875 26.90625 -1.421875 
Q 22.3125 -1.421875 17.546875 -0.640625 
Q 12.796875 0.140625 7.71875 1.703125 
L 7.71875 11.625 
Q 12.109375 9.234375 16.796875 8.0625 
Q 21.484375 6.890625 26.703125 6.890625 
Q 35.15625 6.890625 40.078125 11.328125 
Q 45.015625 15.765625 45.015625 23.390625 
Q 45.015625 31 40.078125 35.4375 
Q 35.15625 39.890625 26.703125 39.890625 
Q 22.75 39.890625 18.8125 39.015625 
Q 14.890625 38.140625 10.796875 36.28125 
z
" id="DejaVuSans-35"/>
      </defs>
      <g transform="translate(121.70678 206.838437)scale(0.1 -0.1)">
       <use xlink:href="#DejaVuSans-2212"/>
       <use x="83.789062" xlink:href="#DejaVuSans-35"/>
      </g>
     </g>
    </g>
    <g id="xtick_3">
     <g id="line2d_3">
      <g>
       <use style="stroke:#000000;stroke-width:0.8;" x="186.550839" xlink:href="#ma147e870e2" y="192.24"/>
      </g>
     </g>
     <g id="text_3">
      <!-- 0 -->
      <g transform="translate(183.369589 206.838437)scale(0.1 -0.1)">
       <use xlink:href="#DejaVuSans-30"/>
      </g>
     </g>
    </g>
    <g id="xtick_4">
     <g id="line2d_4">
      <g>
       <use style="stroke:#000000;stroke-width:0.8;" x="244.023804" xlink:href="#ma147e870e2" y="192.24"/>
      </g>
     </g>
     <g id="text_4">
      <!-- 5 -->
      <g transform="translate(240.842554 206.838437)scale(0.1 -0.1)">
       <use xlink:href="#DejaVuSans-35"/>
      </g>
     </g>
    </g>
    <g id="xtick_5">
     <g id="line2d_5">
      <g>
       <use style="stroke:#000000;stroke-width:0.8;" x="301.496769" xlink:href="#ma147e870e2" y="192.24"/>
      </g>
     </g>
     <g id="text_5">
      <!-- 10 -->
      <g transform="translate(295.134269 206.838437)scale(0.1 -0.1)">
       <use xlink:href="#DejaVuSans-31"/>
       <use x="63.623047" xlink:href="#DejaVuSans-30"/>
      </g>
     </g>
    </g>
   </g>
   <g id="matplotlib.axis_2">
    <g id="ytick_1">
     <g id="line2d_6">
      <defs>
       <path d="M 0 0 
L -3.5 0 
" id="mc4a3cb3b2f" style="stroke:#000000;stroke-width:0.8;"/>
      </defs>
      <g>
       <use style="stroke:#000000;stroke-width:0.8;" x="45" xlink:href="#mc4a3cb3b2f" y="172.20267"/>
      </g>
     </g>
     <g id="text_6">
      <!-- −15 -->
      <g transform="translate(16.895312 176.001889)scale(0.1 -0.1)">
       <use xlink:href="#DejaVuSans-2212"/>
       <use x="83.789062" xlink:href="#DejaVuSans-31"/>
       <use x="147.412109" xlink:href="#DejaVuSans-35"/>
      </g>
     </g>
    </g>
    <g id="ytick_2">
     <g id="line2d_7">
      <g>
       <use style="stroke:#000000;stroke-width:0.8;" x="45" xlink:href="#mc4a3cb3b2f" y="150.430023"/>
      </g>
     </g>
     <g id="text_7">
      <!-- −10 -->
      <g transform="translate(16.895312 154.229242)scale(0.1 -0.1)">
       <use xlink:href="#DejaVuSans-2212"/>
       <use x="83.789062" xlink:href="#DejaVuSans-31"/>
       <use x="147.412109" xlink:href="#DejaVuSans-30"/>
      </g>
     </g>
    </g>
    <g id="ytick_3">
     <g id="line2d_8">
      <g>
       <use style="stroke:#000000;stroke-width:0.8;" x="45" xlink:href="#mc4a3cb3b2f" y="128.657376"/>
      </g>
     </g>
     <g id="text_8">
      <!-- −5 -->
      <g transform="translate(23.257812 132.456595)scale(0.1 -0.1)">
       <use xlink:href="#DejaVuSans-2212"/>
       <use x="83.789062" xlink:href="#DejaVuSans-35"/>
      </g>
     </g>
    </g>
    <g id="ytick_4">
     <g id="line2d_9">
      <g>
       <use style="stroke:#000000;stroke-width:0.8;" x="45" xlink:href="#mc4a3cb3b2f" y="106.88473"/>
      </g>
     </g>
     <g id="text_9">
      <!-- 0 -->
      <g transform="translate(31.6375 110.683948)scale(0.1 -0.1)">
       <use xlink:href="#DejaVuSans-30"/>
      </g>
     </g>
    </g>
    <g id="ytick_5">
     <g id="line2d_10">
      <g>
       <use style="stroke:#000000;stroke-width:0.8;" x="45" xlink:href="#mc4a3cb3b2f" y="85.112083"/>
      </g>
     </g>
     <g id="text_10">
      <!-- 5 -->
      <g transform="translate(31.6375 88.911302)scale(0.1 -0.1)">
       <use xlink:href="#DejaVuSans-35"/>
      </g>
     </g>
    </g>
    <g id="ytick_6">
     <g id="line2d_11">
      <g>
       <use style="stroke:#000000;stroke-width:0.8;" x="45" xlink:href="#mc4a3cb3b2f" y="63.339436"/>
      </g>
     </g>
     <g id="text_11">
      <!-- 10 -->
      <g transform="translate(25.275 67.138655)scale(0.1 -0.1)">
       <use xlink:href="#DejaVuSans-31"/>
       <use x="63.623047" xlink:href="#DejaVuSans-30"/>
      </g>
     </g>
    </g>
    <g id="ytick_7">
     <g id="line2d_12">
      <g>
       <use style="stroke:#000000;stroke-width:0.8;" x="45" xlink:href="#mc4a3cb3b2f" y="41.566789"/>
      </g>
     </g>
     <g id="text_12">
      <!-- 15 -->
      <g transform="translate(25.275 45.366008)scale(0.1 -0.1)">
       <use xlink:href="#DejaVuSans-31"/>
       <use x="63.623047" xlink:href="#DejaVuSans-35"/>
      </g>
     </g>
    </g>
   </g>
   <g id="patch_3">
    <path d="M 45 192.24 
L 45 25.92 
" style="fill:none;stroke:#000000;stroke-linecap:square;stroke-linejoin:miter;stroke-width:0.8;"/>
   </g>
   <g id="patch_4">
    <path d="M 324 192.24 
L 324 25.92 
" style="fill:none;stroke:#000000;stroke-linecap:square;stroke-linejoin:miter;stroke-width:0.8;"/>
   </g>
   <g id="patch_5">
    <path d="M 45 192.24 
L 324 192.24 
" style="fill:none;stroke:#000000;stroke-linecap:square;stroke-linejoin:miter;stroke-width:0.8;"/>
   </g>
   <g id="patch_6">
    <path d="M 45 25.92 
L 324 25.92 
" style="fill:none;stroke:#000000;stroke-linecap:square;stroke-linejoin:miter;stroke-width:0.8;"/>
   </g>
   <g id="legend_1">
    <g id="patch_7">
     <path d="M 52 63.27625 
L 137.053125 63.27625 
Q 139.053125 63.27625 139.053125 61.27625 
L 139.053125 32.92 
Q 139.053125 30.92 137.053125 30.92 
L 52 30.92 
Q 50 30.92 50 32.92 
L 50 61.27625 
Q 50 63.27625 52 63.27625 
z
" style="fill:#ffffff;opacity:0.8;stroke:#cccccc;stroke-linejoin:miter;"/>
    </g>
    <g id="PathCollection_3">
     <g>
      <use style="fill:#008000;stroke:#008000;stroke-width:1.5;" x="64" xlink:href="#mcc50cacfe6" y="39.893437"/>
     </g>
    </g>
    <g id="text_13">
     <!-- Original -->
     <defs>
      <path d="M 39.40625 66.21875 
Q 28.65625 66.21875 22.328125 58.203125 
Q 16.015625 50.203125 16.015625 36.375 
Q 16.015625 22.609375 22.328125 14.59375 
Q 28.65625 6.59375 39.40625 6.59375 
Q 50.140625 6.59375 56.421875 14.59375 
Q 62.703125 22.609375 62.703125 36.375 
Q 62.703125 50.203125 56.421875 58.203125 
Q 50.140625 66.21875 39.40625 66.21875 
z
M 39.40625 74.21875 
Q 54.734375 74.21875 63.90625 63.9375 
Q 73.09375 53.65625 73.09375 36.375 
Q 73.09375 19.140625 63.90625 8.859375 
Q 54.734375 -1.421875 39.40625 -1.421875 
Q 24.03125 -1.421875 14.8125 8.828125 
Q 5.609375 19.09375 5.609375 36.375 
Q 5.609375 53.65625 14.8125 63.9375 
Q 24.03125 74.21875 39.40625 74.21875 
z
" id="DejaVuSans-4f"/>
      <path d="M 41.109375 46.296875 
Q 39.59375 47.171875 37.8125 47.578125 
Q 36.03125 48 33.890625 48 
Q 26.265625 48 22.1875 43.046875 
Q 18.109375 38.09375 18.109375 28.8125 
L 18.109375 0 
L 9.078125 0 
L 9.078125 54.6875 
L 18.109375 54.6875 
L 18.109375 46.1875 
Q 20.953125 51.171875 25.484375 53.578125 
Q 30.03125 56 36.53125 56 
Q 37.453125 56 38.578125 55.875 
Q 39.703125 55.765625 41.0625 55.515625 
z
" id="DejaVuSans-72"/>
      <path d="M 9.421875 54.6875 
L 18.40625 54.6875 
L 18.40625 0 
L 9.421875 0 
z
M 9.421875 75.984375 
L 18.40625 75.984375 
L 18.40625 64.59375 
L 9.421875 64.59375 
z
" id="DejaVuSans-69"/>
      <path d="M 45.40625 27.984375 
Q 45.40625 37.75 41.375 43.109375 
Q 37.359375 48.484375 30.078125 48.484375 
Q 22.859375 48.484375 18.828125 43.109375 
Q 14.796875 37.75 14.796875 27.984375 
Q 14.796875 18.265625 18.828125 12.890625 
Q 22.859375 7.515625 30.078125 7.515625 
Q 37.359375 7.515625 41.375 12.890625 
Q 45.40625 18.265625 45.40625 27.984375 
z
M 54.390625 6.78125 
Q 54.390625 -7.171875 48.1875 -13.984375 
Q 42 -20.796875 29.203125 -20.796875 
Q 24.46875 -20.796875 20.265625 -20.09375 
Q 16.0625 -19.390625 12.109375 -17.921875 
L 12.109375 -9.1875 
Q 16.0625 -11.328125 19.921875 -12.34375 
Q 23.78125 -13.375 27.78125 -13.375 
Q 36.625 -13.375 41.015625 -8.765625 
Q 45.40625 -4.15625 45.40625 5.171875 
L 45.40625 9.625 
Q 42.625 4.78125 38.28125 2.390625 
Q 33.9375 0 27.875 0 
Q 17.828125 0 11.671875 7.65625 
Q 5.515625 15.328125 5.515625 27.984375 
Q 5.515625 40.671875 11.671875 48.328125 
Q 17.828125 56 27.875 56 
Q 33.9375 56 38.28125 53.609375 
Q 42.625 51.21875 45.40625 46.390625 
L 45.40625 54.6875 
L 54.390625 54.6875 
z
" id="DejaVuSans-67"/>
      <path d="M 54.890625 33.015625 
L 54.890625 0 
L 45.90625 0 
L 45.90625 32.71875 
Q 45.90625 40.484375 42.875 44.328125 
Q 39.84375 48.1875 33.796875 48.1875 
Q 26.515625 48.1875 22.3125 43.546875 
Q 18.109375 38.921875 18.109375 30.90625 
L 18.109375 0 
L 9.078125 0 
L 9.078125 54.6875 
L 18.109375 54.6875 
L 18.109375 46.1875 
Q 21.34375 51.125 25.703125 53.5625 
Q 30.078125 56 35.796875 56 
Q 45.21875 56 50.046875 50.171875 
Q 54.890625 44.34375 54.890625 33.015625 
z
" id="DejaVuSans-6e"/>
      <path d="M 34.28125 27.484375 
Q 23.390625 27.484375 19.1875 25 
Q 14.984375 22.515625 14.984375 16.5 
Q 14.984375 11.71875 18.140625 8.90625 
Q 21.296875 6.109375 26.703125 6.109375 
Q 34.1875 6.109375 38.703125 11.40625 
Q 43.21875 16.703125 43.21875 25.484375 
L 43.21875 27.484375 
z
M 52.203125 31.203125 
L 52.203125 0 
L 43.21875 0 
L 43.21875 8.296875 
Q 40.140625 3.328125 35.546875 0.953125 
Q 30.953125 -1.421875 24.3125 -1.421875 
Q 15.921875 -1.421875 10.953125 3.296875 
Q 6 8.015625 6 15.921875 
Q 6 25.140625 12.171875 29.828125 
Q 18.359375 34.515625 30.609375 34.515625 
L 43.21875 34.515625 
L 43.21875 35.40625 
Q 43.21875 41.609375 39.140625 45 
Q 35.0625 48.390625 27.6875 48.390625 
Q 23 48.390625 18.546875 47.265625 
Q 14.109375 46.140625 10.015625 43.890625 
L 10.015625 52.203125 
Q 14.9375 54.109375 19.578125 55.046875 
Q 24.21875 56 28.609375 56 
Q 40.484375 56 46.34375 49.84375 
Q 52.203125 43.703125 52.203125 31.203125 
z
" id="DejaVuSans-61"/>
      <path d="M 9.421875 75.984375 
L 18.40625 75.984375 
L 18.40625 0 
L 9.421875 0 
z
" id="DejaVuSans-6c"/>
     </defs>
     <g transform="translate(82 42.518437)scale(0.1 -0.1)">
      <use xlink:href="#DejaVuSans-4f"/>
      <use x="78.710938" xlink:href="#DejaVuSans-72"/>
      <use x="119.824219" xlink:href="#DejaVuSans-69"/>
      <use x="147.607422" xlink:href="#DejaVuSans-67"/>
      <use x="211.083984" xlink:href="#DejaVuSans-69"/>
      <use x="238.867188" xlink:href="#DejaVuSans-6e"/>
      <use x="302.246094" xlink:href="#DejaVuSans-61"/>
      <use x="363.525391" xlink:href="#DejaVuSans-6c"/>
     </g>
    </g>
    <g id="PathCollection_4">
     <g>
      <use style="fill:#ff0000;stroke:#ff0000;stroke-width:1.5;" x="64" xlink:href="#mc1813e1be8" y="54.571562"/>
     </g>
    </g>
    <g id="text_14">
     <!-- Generated -->
     <defs>
      <path d="M 59.515625 10.40625 
L 59.515625 29.984375 
L 43.40625 29.984375 
L 43.40625 38.09375 
L 69.28125 38.09375 
L 69.28125 6.78125 
Q 63.578125 2.734375 56.6875 0.65625 
Q 49.8125 -1.421875 42 -1.421875 
Q 24.90625 -1.421875 15.25 8.5625 
Q 5.609375 18.5625 5.609375 36.375 
Q 5.609375 54.25 15.25 64.234375 
Q 24.90625 74.21875 42 74.21875 
Q 49.125 74.21875 55.546875 72.453125 
Q 61.96875 70.703125 67.390625 67.28125 
L 67.390625 56.78125 
Q 61.921875 61.421875 55.765625 63.765625 
Q 49.609375 66.109375 42.828125 66.109375 
Q 29.4375 66.109375 22.71875 58.640625 
Q 16.015625 51.171875 16.015625 36.375 
Q 16.015625 21.625 22.71875 14.15625 
Q 29.4375 6.6875 42.828125 6.6875 
Q 48.046875 6.6875 52.140625 7.59375 
Q 56.25 8.5 59.515625 10.40625 
z
" id="DejaVuSans-47"/>
      <path d="M 56.203125 29.59375 
L 56.203125 25.203125 
L 14.890625 25.203125 
Q 15.484375 15.921875 20.484375 11.0625 
Q 25.484375 6.203125 34.421875 6.203125 
Q 39.59375 6.203125 44.453125 7.46875 
Q 49.3125 8.734375 54.109375 11.28125 
L 54.109375 2.78125 
Q 49.265625 0.734375 44.1875 -0.34375 
Q 39.109375 -1.421875 33.890625 -1.421875 
Q 20.796875 -1.421875 13.15625 6.1875 
Q 5.515625 13.8125 5.515625 26.8125 
Q 5.515625 40.234375 12.765625 48.109375 
Q 20.015625 56 32.328125 56 
Q 43.359375 56 49.78125 48.890625 
Q 56.203125 41.796875 56.203125 29.59375 
z
M 47.21875 32.234375 
Q 47.125 39.59375 43.09375 43.984375 
Q 39.0625 48.390625 32.421875 48.390625 
Q 24.90625 48.390625 20.390625 44.140625 
Q 15.875 39.890625 15.1875 32.171875 
z
" id="DejaVuSans-65"/>
      <path d="M 18.3125 70.21875 
L 18.3125 54.6875 
L 36.8125 54.6875 
L 36.8125 47.703125 
L 18.3125 47.703125 
L 18.3125 18.015625 
Q 18.3125 11.328125 20.140625 9.421875 
Q 21.96875 7.515625 27.59375 7.515625 
L 36.8125 7.515625 
L 36.8125 0 
L 27.59375 0 
Q 17.1875 0 13.234375 3.875 
Q 9.28125 7.765625 9.28125 18.015625 
L 9.28125 47.703125 
L 2.6875 47.703125 
L 2.6875 54.6875 
L 9.28125 54.6875 
L 9.28125 70.21875 
z
" id="DejaVuSans-74"/>
      <path d="M 45.40625 46.390625 
L 45.40625 75.984375 
L 54.390625 75.984375 
L 54.390625 0 
L 45.40625 0 
L 45.40625 8.203125 
Q 42.578125 3.328125 38.25 0.953125 
Q 33.9375 -1.421875 27.875 -1.421875 
Q 17.96875 -1.421875 11.734375 6.484375 
Q 5.515625 14.40625 5.515625 27.296875 
Q 5.515625 40.1875 11.734375 48.09375 
Q 17.96875 56 27.875 56 
Q 33.9375 56 38.25 53.625 
Q 42.578125 51.265625 45.40625 46.390625 
z
M 14.796875 27.296875 
Q 14.796875 17.390625 18.875 11.75 
Q 22.953125 6.109375 30.078125 6.109375 
Q 37.203125 6.109375 41.296875 11.75 
Q 45.40625 17.390625 45.40625 27.296875 
Q 45.40625 37.203125 41.296875 42.84375 
Q 37.203125 48.484375 30.078125 48.484375 
Q 22.953125 48.484375 18.875 42.84375 
Q 14.796875 37.203125 14.796875 27.296875 
z
" id="DejaVuSans-64"/>
     </defs>
     <g transform="translate(82 57.196562)scale(0.1 -0.1)">
      <use xlink:href="#DejaVuSans-47"/>
      <use x="77.490234" xlink:href="#DejaVuSans-65"/>
      <use x="139.013672" xlink:href="#DejaVuSans-6e"/>
      <use x="202.392578" xlink:href="#DejaVuSans-65"/>
      <use x="263.916016" xlink:href="#DejaVuSans-72"/>
      <use x="305.029297" xlink:href="#DejaVuSans-61"/>
      <use x="366.308594" xlink:href="#DejaVuSans-74"/>
      <use x="405.517578" xlink:href="#DejaVuSans-65"/>
      <use x="467.041016" xlink:href="#DejaVuSans-64"/>
     </g>
    </g>
   </g>
  </g>
 </g>
 <defs>
  <clipPath id="p6548e43fba">
   <rect height="166.32" width="279" x="45" y="25.92"/>
  </clipPath>
 </defs>
</svg>
